<svg preserveAspectRatio="none" width="100%" height="100%" overflow="visible" style="display: block;" viewBox="0 0 412 402" fill="none" xmlns="http://www.w3.org/2000/svg">
<g id="Grid" clip-path="url(#clip0_0_150)">
<path id="Vector" d="M-138 58.6758H1332" stroke="var(--stroke-0, #F4F4F4)" stroke-width="1.05"/>
<path id="Vector_2" d="M-138 115.78H1332" stroke="var(--stroke-0, #F4F4F4)" stroke-width="1.05"/>
<path id="Vector_3" d="M-138 172.886H1332" stroke="var(--stroke-0, #F4F4F4)" stroke-width="1.05"/>
<path id="Vector_4" d="M-138 229.99H1332" stroke="var(--stroke-0, #F4F4F4)" stroke-width="1.05"/>
<path id="Vector_5" d="M-138 287.094H1332" stroke="var(--stroke-0, #F4F4F4)" stroke-width="1.05"/>
<path id="Vector_6" d="M-138 344.197H1332" stroke="var(--stroke-0, #F4F4F4)" stroke-width="1.05"/>
<path id="Vector_7" d="M-138 0.297852V401.866" stroke="var(--stroke-0, #F4F4F4)" stroke-width="1.05"/>
<path id="Vector_8" d="M-86 0.297852V401.866" stroke="var(--stroke-0, #F4F4F4)" stroke-width="1.05"/>
<path id="Vector_9" d="M-33 0.297852V401.866" stroke="var(--stroke-0, #F4F4F4)" stroke-width="1.05"/>
<path id="Vector_10" d="M20 0.297852V401.866" stroke="var(--stroke-0, #F4F4F4)" stroke-width="1.05"/>
<path id="Vector_11" d="M72 0.297852V401.866" stroke="var(--stroke-0, #F4F4F4)" stroke-width="1.05"/>
<path id="Vector_12" d="M125 0.297852V401.866" stroke="var(--stroke-0, #F4F4F4)" stroke-width="1.05"/>
<path id="Vector_13" d="M177 0.297852V401.866" stroke="var(--stroke-0, #F4F4F4)" stroke-width="1.05"/>
<path id="Vector_14" d="M230 0.297852V401.866" stroke="var(--stroke-0, #F4F4F4)" stroke-width="1.05"/>
<path id="Vector_15" d="M282 0.297852V401.866" stroke="var(--stroke-0, #F4F4F4)" stroke-width="1.05"/>
<path id="Vector_16" d="M334 0.297852V401.866" stroke="var(--stroke-0, #F4F4F4)" stroke-width="1.05"/>
<path id="Vector_17" d="M387 0.297852V401.866" stroke="var(--stroke-0, #F4F4F4)" stroke-width="1.05"/>
<path id="Vector_18" d="M439 0.297852V401.866" stroke="var(--stroke-0, #F4F4F4)" stroke-width="1.05"/>
<path id="Vector_19" d="M492 0.297852V401.866" stroke="var(--stroke-0, #F4F4F4)" stroke-width="1.05"/>
<path id="Vector_20" d="M545 0.297852V401.866" stroke="var(--stroke-0, #F4F4F4)" stroke-width="1.05"/>
<path id="Vector_21" d="M597 0.297852V401.866" stroke="var(--stroke-0, #F4F4F4)" stroke-width="1.05"/>
<path id="Vector_22" d="M650 0.297852V401.866" stroke="var(--stroke-0, #F4F4F4)" stroke-width="1.05"/>
<path id="Vector_23" d="M702 0.297852V401.866" stroke="var(--stroke-0, #F4F4F4)" stroke-width="1.05"/>
<path id="Vector_24" d="M755 0.297852V401.866" stroke="var(--stroke-0, #F4F4F4)" stroke-width="1.05"/>
<path id="Vector_25" d="M807 0.297852V401.866" stroke="var(--stroke-0, #F4F4F4)" stroke-width="1.05"/>
<path id="Vector_26" d="M860 0.297852V401.866" stroke="var(--stroke-0, #F4F4F4)" stroke-width="1.05"/>
<path id="Vector_27" d="M912 0.297852V401.866" stroke="var(--stroke-0, #F4F4F4)" stroke-width="1.05"/>
<path id="Vector_28" d="M965 0.297852V401.866" stroke="var(--stroke-0, #F4F4F4)" stroke-width="1.05"/>
<path id="Vector_29" d="M1017 0.297852V401.866" stroke="var(--stroke-0, #F4F4F4)" stroke-width="1.05"/>
<path id="Vector_30" d="M1069 0.297852V401.866" stroke="var(--stroke-0, #F4F4F4)" stroke-width="1.05"/>
<path id="Vector_31" d="M1122 0.297852V401.866" stroke="var(--stroke-0, #F4F4F4)" stroke-width="1.05"/>
<path id="Vector_32" d="M1175 0.297852V401.866" stroke="var(--stroke-0, #F4F4F4)" stroke-width="1.05"/>
<path id="Vector_33" d="M1227 0.297852V401.866" stroke="var(--stroke-0, #F4F4F4)" stroke-width="1.05"/>
<path id="Vector_34" d="M1280 0.297852V401.866" stroke="var(--stroke-0, #F4F4F4)" stroke-width="1.05"/>
<path id="Vector_35" d="M1332 0.297852V401.866" stroke="var(--stroke-0, #F4F4F4)" stroke-width="1.05"/>
</g>
<defs>
<clipPath id="clip0_0_150">
<rect width="412" height="402" fill="white"/>
</clipPath>
</defs>
</svg>
