<svg preserveAspectRatio="none" width="100%" height="100%" overflow="visible" style="display: block;" viewBox="0 0 32 32" fill="none" xmlns="http://www.w3.org/2000/svg">
<g id="mdi:instagram">
<path id="Vector" d="M12.4998 7.6665H19.4998C22.1665 7.6665 24.3332 9.83317 24.3332 12.4998V19.4998C24.3332 20.7817 23.8239 22.0111 22.9175 22.9175C22.0111 23.8239 20.7817 24.3332 19.4998 24.3332H12.4998C9.83317 24.3332 7.6665 22.1665 7.6665 19.4998V12.4998C7.6665 11.218 8.17573 9.98858 9.08215 9.08215C9.98858 8.17573 11.218 7.6665 12.4998 7.6665ZM12.3332 9.33317C11.5375 9.33317 10.7745 9.64924 10.2119 10.2119C9.64924 10.7745 9.33317 11.5375 9.33317 12.3332V19.6665C9.33317 21.3248 10.6748 22.6665 12.3332 22.6665H19.6665C20.4622 22.6665 21.2252 22.3504 21.7878 21.7878C22.3504 21.2252 22.6665 20.4622 22.6665 19.6665V12.3332C22.6665 10.6748 21.3248 9.33317 19.6665 9.33317H12.3332ZM20.3748 10.5832C20.6511 10.5832 20.9161 10.6929 21.1114 10.8883C21.3068 11.0836 21.4165 11.3486 21.4165 11.6248C21.4165 11.9011 21.3068 12.1661 21.1114 12.3614C20.9161 12.5568 20.6511 12.6665 20.3748 12.6665C20.0986 12.6665 19.8336 12.5568 19.6383 12.3614C19.4429 12.1661 19.3332 11.9011 19.3332 11.6248C19.3332 11.3486 19.4429 11.0836 19.6383 10.8883C19.8336 10.6929 20.0986 10.5832 20.3748 10.5832ZM15.9998 11.8332C17.1049 11.8332 18.1647 12.2722 18.9461 13.0536C19.7275 13.835 20.1665 14.8948 20.1665 15.9998C20.1665 17.1049 19.7275 18.1647 18.9461 18.9461C18.1647 19.7275 17.1049 20.1665 15.9998 20.1665C14.8948 20.1665 13.835 19.7275 13.0536 18.9461C12.2722 18.1647 11.8332 17.1049 11.8332 15.9998C11.8332 14.8948 12.2722 13.835 13.0536 13.0536C13.835 12.2722 14.8948 11.8332 15.9998 11.8332ZM15.9998 13.4998C15.3368 13.4998 14.7009 13.7632 14.2321 14.2321C13.7632 14.7009 13.4998 15.3368 13.4998 15.9998C13.4998 16.6629 13.7632 17.2988 14.2321 17.7676C14.7009 18.2364 15.3368 18.4998 15.9998 18.4998C16.6629 18.4998 17.2988 18.2364 17.7676 17.7676C18.2364 17.2988 18.4998 16.6629 18.4998 15.9998C18.4998 15.3368 18.2364 14.7009 17.7676 14.2321C17.2988 13.7632 16.6629 13.4998 15.9998 13.4998Z" fill="var(--fill-0, #BEBEBE)"/>
</g>
</svg>
