<svg preserveAspectRatio="none" width="100%" height="100%" overflow="visible" style="display: block;" viewBox="0 0 241.592 47.898" fill="none" xmlns="http://www.w3.org/2000/svg">
<g id="Frame" clip-path="url(#clip0_0_84)">
<path id="Vector" d="M88.7248 38.992H86.1778C86.0735 38.992 86.0436 39.0342 86.0436 39.127V39.3126C86.0436 39.4054 86.0735 39.4475 86.1778 39.4475H88.395V40.3487C88.395 41.6012 87.5744 42.4011 86.085 42.4011C84.5725 42.4011 83.7634 41.6012 83.7634 40.2774V37.7395C83.7634 36.4334 84.5303 35.6457 86.0735 35.6457C87.421 35.6457 88.0323 36.1335 88.3414 37.1582C88.3743 37.251 88.425 37.2724 88.5178 37.2425L88.7034 37.1796C88.7962 37.1375 88.8291 37.1076 88.7962 37.0025C88.4457 35.8221 87.6787 35.2017 86.0735 35.2017C84.2397 35.2017 83.2871 36.1757 83.2871 37.7487V40.2774C83.2871 41.8619 84.2604 42.8444 86.0819 42.8444C87.8858 42.8444 88.8591 41.8619 88.8591 40.3487V39.1354C88.8591 39.0342 88.8291 38.992 88.7248 38.992Z" fill="var(--fill-0, #340C3B)"/>
<path id="Vector_2" d="M92.9903 35.3457H92.7717C92.6697 35.3457 92.6367 35.3756 92.6367 35.4807V42.5658C92.6367 42.6709 92.6697 42.7008 92.7717 42.7008H96.8849C96.9777 42.7008 97.0107 42.6709 97.0107 42.5658V42.3802C97.0107 42.2874 96.9777 42.2545 96.8849 42.2545H93.113V35.4807C93.113 35.3756 93.0831 35.3457 92.9903 35.3457Z" fill="var(--fill-0, #340C3B)"/>
<path id="Vector_3" d="M100.022 37.7602V40.2858C100.022 41.8711 100.997 42.8444 102.82 42.8444C104.621 42.8444 105.595 41.8711 105.595 40.2858V37.7602C105.595 36.1757 104.621 35.2017 102.82 35.2017C100.997 35.2017 100.022 36.1757 100.022 37.7602ZM105.119 37.7602V40.2858C105.119 41.6134 104.313 42.4011 102.82 42.4011C101.308 42.4011 100.499 41.6134 100.499 40.2858V37.7602C100.499 36.4334 101.308 35.6457 102.82 35.6457C104.313 35.6457 105.119 36.4334 105.119 37.7602Z" fill="var(--fill-0, #340C3B)"/>
<path id="Vector_4" d="M112.56 35.3457H109.618C109.513 35.3457 109.483 35.3756 109.483 35.4807V42.5658C109.483 42.6709 109.513 42.7008 109.618 42.7008H112.692C113.956 42.7008 114.756 42.006 114.756 40.7413C114.756 39.7289 114.28 39.1053 113.429 38.9197V38.899C114.133 38.6505 114.508 38.0807 114.508 37.2002C114.508 35.9992 113.791 35.3457 112.56 35.3457ZM114.019 37.2508C114.019 38.2364 113.471 38.7341 112.506 38.7341H109.96V35.7921H112.506C113.48 35.7921 114.019 36.2891 114.019 37.2508ZM114.259 40.7021C114.259 41.7153 113.686 42.2545 112.674 42.2545H109.96V39.1682H112.674C113.686 39.1682 114.259 39.7074 114.259 40.7021Z" fill="var(--fill-0, #340C3B)"/>
<path id="Vector_5" d="M123.927 42.5754L121.06 35.4181C121.027 35.3253 120.976 35.2954 120.883 35.2954H120.677C120.584 35.2954 120.542 35.3253 120.5 35.4181L117.63 42.5754C117.6 42.6498 117.621 42.7012 117.723 42.7012H117.9C118.055 42.7012 118.106 42.6797 118.139 42.5869L119.05 40.2983H122.489L123.412 42.5869C123.433 42.6797 123.484 42.7012 123.64 42.7012H123.825C123.94 42.7012 123.96 42.6498 123.927 42.5754ZM120.883 36.215L122.354 39.8941H119.194L120.665 36.215C120.74 36.0079 120.749 35.8223 120.749 35.7717H120.779C120.79 35.8223 120.812 36.0079 120.883 36.215Z" fill="var(--fill-0, #340C3B)"/>
<path id="Vector_6" d="M127.645 35.3457H127.426C127.321 35.3457 127.291 35.3756 127.291 35.4807V42.5658C127.291 42.6709 127.321 42.7008 127.426 42.7008H131.539C131.632 42.7008 131.662 42.6709 131.662 42.5658V42.3802C131.662 42.2874 131.632 42.2545 131.539 42.2545H127.767V35.4807C127.767 35.3756 127.737 35.3457 127.645 35.3457Z" fill="var(--fill-0, #340C3B)"/>
<path id="Vector_7" d="M139.347 37.2632C139.347 38.8693 140.754 39.0848 142.049 39.2405C143.179 39.3754 144.254 39.5311 144.254 40.7537C144.254 41.8497 143.49 42.3896 141.998 42.3896C140.836 42.3896 140.102 41.9041 139.655 40.8557C139.604 40.7537 139.574 40.7414 139.478 40.7744L139.283 40.8465C139.179 40.8879 139.17 40.9301 139.212 41.0321C139.709 42.2661 140.548 42.8444 141.998 42.8444C143.798 42.8444 144.733 42.0774 144.733 40.7322C144.733 39.1354 143.415 38.9199 142.154 38.7734C140.982 38.6507 139.832 38.4528 139.832 37.2303C139.832 36.2355 140.608 35.6572 141.944 35.6572C143.107 35.6572 143.759 36.0921 144.224 37.0148C144.275 37.1076 144.308 37.1076 144.389 37.0746L144.598 36.9818C144.68 36.9519 144.713 36.9005 144.658 36.8046C144.122 35.7086 143.334 35.2017 141.944 35.2017C140.308 35.2017 139.347 35.9993 139.347 37.2632Z" fill="var(--fill-0, #340C3B)"/>
<path id="Vector_8" d="M148.238 37.7602V40.2858C148.238 41.8711 149.212 42.8444 151.037 42.8444C152.837 42.8444 153.811 41.8711 153.811 40.2858V37.7602C153.811 36.1757 152.837 35.2017 151.037 35.2017C149.212 35.2017 148.238 36.1757 148.238 37.7602ZM153.335 37.7602V40.2858C153.335 41.6134 152.529 42.4011 151.037 42.4011C149.524 42.4011 148.715 41.6134 148.715 40.2858V37.7602C148.715 36.4334 149.524 35.6457 151.037 35.6457C152.529 35.6457 153.335 36.4334 153.335 37.7602Z" fill="var(--fill-0, #340C3B)"/>
<path id="Vector_9" d="M158.039 35.3457H157.823C157.718 35.3457 157.688 35.3756 157.688 35.4807V42.5658C157.688 42.6709 157.718 42.7008 157.823 42.7008H161.934C162.026 42.7008 162.059 42.6709 162.059 42.5658V42.3802C162.059 42.2874 162.026 42.2545 161.934 42.2545H158.165V35.4807C158.165 35.3756 158.132 35.3457 158.039 35.3457Z" fill="var(--fill-0, #340C3B)"/>
<path id="Vector_10" d="M165.621 40.2144V35.4807C165.621 35.3756 165.588 35.3457 165.495 35.3457H165.28C165.174 35.3457 165.145 35.3756 165.145 35.4807V40.2144C165.145 41.8196 166.043 42.8565 167.877 42.8565C169.702 42.8565 170.603 41.8196 170.603 40.2144V35.4807C170.603 35.3756 170.57 35.3457 170.477 35.3457H170.249C170.157 35.3457 170.127 35.3756 170.127 35.4807V40.2144C170.127 41.5504 169.39 42.4102 167.877 42.4102C166.355 42.4102 165.621 41.5504 165.621 40.2144Z" fill="var(--fill-0, #340C3B)"/>
<path id="Vector_11" d="M179.019 35.3457H174.049C173.944 35.3457 173.914 35.3756 173.914 35.4807V35.6663C173.914 35.7591 173.944 35.7921 174.049 35.7921H176.295V42.5658C176.295 42.6709 176.325 42.7008 176.43 42.7008H176.649C176.742 42.7008 176.772 42.6709 176.772 42.5658V35.7921H179.019C179.124 35.7921 179.154 35.7591 179.154 35.6663V35.4807C179.154 35.3756 179.124 35.3457 179.019 35.3457Z" fill="var(--fill-0, #340C3B)"/>
<path id="Vector_12" d="M182.461 35.4807V42.5658C182.461 42.6709 182.491 42.7008 182.596 42.7008H182.811C182.904 42.7008 182.937 42.6709 182.937 42.5658V35.4807C182.937 35.3756 182.904 35.3457 182.811 35.3457H182.596C182.491 35.3457 182.461 35.3756 182.461 35.4807Z" fill="var(--fill-0, #340C3B)"/>
<path id="Vector_13" d="M186.758 37.7602V40.2858C186.758 41.8711 187.731 42.8444 189.556 42.8444C191.36 42.8444 192.333 41.8711 192.333 40.2858V37.7602C192.333 36.1757 191.36 35.2017 189.556 35.2017C187.731 35.2017 186.758 36.1757 186.758 37.7602ZM191.857 37.7602V40.2858C191.857 41.6134 191.048 42.4011 189.556 42.4011C188.043 42.4011 187.234 41.6134 187.234 40.2858V37.7602C187.234 36.4334 188.043 35.6457 189.556 35.6457C191.048 35.6457 191.857 36.4334 191.857 37.7602Z" fill="var(--fill-0, #340C3B)"/>
<path id="Vector_14" d="M201.524 35.3457H201.317C201.213 35.3457 201.182 35.3756 201.182 35.4684V40.1423C201.182 40.8555 201.254 41.5504 201.254 42.006H201.234C200.985 41.6547 200.665 41.0741 200.281 40.5257L196.707 35.4178C196.686 35.3879 196.644 35.3457 196.563 35.3457H196.357C196.252 35.3457 196.222 35.3756 196.222 35.4807V42.5658C196.222 42.6709 196.252 42.7008 196.357 42.7008H196.563C196.656 42.7008 196.686 42.6709 196.686 42.5658V37.7394C196.686 37.0859 196.623 36.424 196.623 36.0291H196.644C196.863 36.3282 197.141 36.8888 197.483 37.3766L201.162 42.6165C201.204 42.6886 201.234 42.7008 201.306 42.7008H201.524C201.617 42.7008 201.647 42.6709 201.647 42.5658V35.4807C201.647 35.3756 201.617 35.3457 201.524 35.3457Z" fill="var(--fill-0, #340C3B)"/>
<path id="Vector_15" d="M205.479 37.2632C205.479 38.8693 206.887 39.0848 208.184 39.2405C209.31 39.3754 210.389 39.5311 210.389 40.7537C210.389 41.8497 209.622 42.3896 208.13 42.3896C206.97 42.3896 206.236 41.9041 205.79 40.8557C205.739 40.7537 205.706 40.7414 205.614 40.7744L205.416 40.8465C205.314 40.8879 205.302 40.9301 205.344 41.0321C205.841 42.2661 206.68 42.8444 208.13 42.8444C209.934 42.8444 210.866 42.0774 210.866 40.7322C210.866 39.1354 209.55 38.9199 208.286 38.7734C207.115 38.6507 205.967 38.4528 205.967 37.2303C205.967 36.2355 206.743 35.6572 208.079 35.6572C209.238 35.6572 209.892 36.0921 210.359 37.0148C210.41 37.1076 210.44 37.1076 210.524 37.0746L210.731 36.9818C210.814 36.9519 210.844 36.9005 210.794 36.8046C210.255 35.7086 209.466 35.2017 208.079 35.2017C206.444 35.2017 205.479 35.9993 205.479 37.2632Z" fill="var(--fill-0, #340C3B)"/>
<path id="Vector_16" d="M82.0285 29.468H89.8453V28.8598C89.4948 28.8598 89.2248 28.8062 89.0362 28.698C88.8475 28.5899 88.7033 28.2816 88.6105 27.7662C88.5146 27.2538 88.461 26.4631 88.4487 25.3963C88.4341 24.3302 88.428 22.853 88.428 20.9625V6.50148C90.0217 6.50148 91.2979 6.53446 92.2566 6.59965C93.2153 6.66868 93.9854 6.78296 94.5636 6.94478C95.145 7.10968 95.6029 7.34284 95.9419 7.65422C96.2801 7.96637 96.6521 8.39127 97.0563 8.93121L97.3799 9.37757H97.8654C97.8109 8.83534 97.7665 8.24784 97.7243 7.61587C97.6852 6.98083 97.6376 6.39334 97.5832 5.8511L97.5417 5.24597H74.2093L74.1672 5.89328H74.2093C74.1557 6.43246 74.1073 7.01381 74.0682 7.63351C74.0268 8.25705 73.9785 8.83534 73.9248 9.37757H74.4126L74.7362 8.93121C75.1412 8.39127 75.5185 7.96637 75.869 7.65422C76.2226 7.34284 76.6866 7.10968 77.268 6.94478C77.8493 6.78296 78.6194 6.66868 79.5781 6.59965C80.5368 6.53446 81.8252 6.50148 83.4458 6.50148V20.9625C83.4458 22.853 83.4397 24.3302 83.4243 25.3963C83.4128 26.4631 83.3645 27.2538 83.284 27.7662C83.2027 28.2816 83.0685 28.5899 82.879 28.698C82.6873 28.8062 82.4058 28.8598 82.0285 28.8598V29.468Z" fill="var(--fill-0, #340C3B)"/>
<path id="Vector_17" d="M114.799 18.7752V14.5217H114.313L114.151 14.7249C113.989 14.9681 113.801 15.1682 113.585 15.3301C113.369 15.4919 112.989 15.6146 112.449 15.6959C111.91 15.7764 111.146 15.8363 110.161 15.8784C109.175 15.9175 107.833 15.9383 106.131 15.9383V6.5016C108.291 6.5016 109.999 6.51924 111.254 6.56143C112.509 6.59977 113.495 6.69028 114.211 6.82449C114.927 6.95948 115.46 7.17499 115.811 7.47181C116.164 7.76862 116.515 8.17587 116.865 8.6882L117.15 9.09239H117.593V5.24609H99.6895V5.85122C100.068 5.85122 100.352 5.90491 100.541 6.01305C100.729 6.12043 100.864 6.43258 100.945 6.94491C101.026 7.4603 101.074 8.24797 101.086 9.31481C101.101 10.3809 101.107 11.8611 101.107 13.7517V20.9626C101.107 22.8531 101.101 24.3303 101.086 25.3964C101.074 26.4632 101.026 27.254 100.945 27.7663C100.864 28.2817 100.729 28.59 100.541 28.6981C100.352 28.8063 100.068 28.86 99.6895 28.86V29.4682H117.513L117.636 28.86H117.675C117.755 28.3745 117.845 27.8353 117.938 27.2424C118.034 26.6458 118.121 26.1066 118.202 25.6211H117.755L117.392 26.0261C116.958 26.5384 116.533 26.9426 116.116 27.2424C115.697 27.5385 115.11 27.7548 114.355 27.889C113.597 28.024 112.578 28.1106 111.296 28.1528C110.013 28.1919 108.291 28.2127 106.131 28.2127V17.1547C107.833 17.1547 109.175 17.1761 110.161 17.2145C111.146 17.2567 111.91 17.3287 112.449 17.4361C112.989 17.5443 113.369 17.6823 113.585 17.8441C113.801 18.006 113.989 18.233 114.151 18.5329L114.313 18.7752H114.799Z" fill="var(--fill-0, #340C3B)"/>
<path id="Vector_18" d="M141.13 5.24597H137.16V5.8511H137.283C137.444 5.8511 137.531 5.89328 137.546 5.97381C137.558 6.05511 137.43 6.27063 137.16 6.62113C136.89 6.97163 136.45 7.48702 135.844 8.16118C135.236 8.83534 134.392 9.76642 133.313 10.956L131.65 12.7384L128.289 16.4236V13.7515C128.289 11.861 128.295 10.3808 128.31 9.31468C128.321 8.24784 128.376 7.46018 128.472 6.94478C128.564 6.43246 128.708 6.1203 128.897 6.01293C129.086 5.90479 129.355 5.8511 129.706 5.8511V5.24597H121.89V5.8511C122.267 5.8511 122.548 5.90479 122.737 6.01293C122.929 6.1203 123.064 6.43246 123.144 6.94478C123.226 7.46018 123.273 8.24784 123.286 9.31468C123.301 10.3808 123.306 11.861 123.306 13.7515V20.9625C123.306 22.853 123.301 24.3302 123.286 25.3963C123.273 26.4631 123.226 27.2538 123.144 27.7662C123.064 28.2816 122.929 28.5899 122.737 28.698C122.548 28.8062 122.267 28.8598 121.89 28.8598V29.468H129.706V28.8598C129.355 28.8598 129.086 28.8062 128.897 28.698C128.708 28.5899 128.564 28.2816 128.472 27.7662C128.376 27.2538 128.321 26.4631 128.31 25.3963C128.295 24.3302 128.289 22.853 128.289 20.9625V16.4236C128.72 17.1008 129.22 17.8555 129.787 18.6946C130.272 19.3956 130.853 20.2523 131.53 21.2654C132.204 22.2778 132.959 23.4075 133.798 24.6477C134.419 25.5404 135.054 26.3013 135.701 26.9363C136.351 27.5714 137.067 28.0929 137.849 28.4971C138.631 28.902 139.481 29.1981 140.401 29.3867C141.318 29.5754 142.346 29.672 143.478 29.672H145.18V28.698C144.641 28.698 144.092 28.563 143.541 28.2938C142.987 28.0239 142.4 27.5867 141.779 26.9785C141.156 26.3703 140.467 25.5734 139.712 24.5879C138.958 23.6016 138.106 22.3944 137.16 20.9625C136.081 19.3419 135.129 17.9246 134.304 16.7082C133.481 15.4918 132.84 14.5484 132.381 13.8742L132.501 13.7515C134.176 11.8878 135.506 10.4291 136.492 9.37757C137.477 8.32301 138.247 7.53151 138.802 7.00767C139.353 6.48001 139.772 6.15635 140.057 6.03364C140.338 5.91399 140.617 5.8511 140.886 5.8511H141.13V5.24597Z" fill="var(--fill-0, #340C3B)"/>
<path id="Vector_19" d="M161.87 10.8333L161.912 6.94482C160.965 6.37803 159.926 5.92016 158.79 5.56966C157.657 5.21916 156.618 5.04199 155.672 5.04199C154.404 5.04199 153.247 5.22453 152.208 5.5873C151.169 5.95314 150.278 6.46547 149.536 7.12735C148.793 7.78924 148.218 8.59224 147.813 9.53943C147.408 10.4828 147.205 11.522 147.205 12.6579C147.205 14.0898 147.765 15.4051 148.886 16.6062C150.009 17.808 151.501 18.6946 153.365 19.2606C154.389 19.5574 155.315 19.9079 156.139 20.3121C156.962 20.7201 157.67 21.1512 158.265 21.6098C158.859 22.0677 159.318 22.547 159.641 23.0479C159.967 23.5479 160.129 24.0395 160.129 24.5273C160.129 25.7138 159.662 26.661 158.73 27.362C157.798 28.0661 156.564 28.4166 155.024 28.4166C153.7 28.4166 152.417 28.0776 151.174 27.4034C149.934 26.727 148.961 25.822 148.26 24.6892C148.178 24.5549 148.092 24.42 147.996 24.285C147.9 24.1469 147.813 24.0127 147.732 23.8777H147.205L147.166 27.7662C148.109 28.3353 149.299 28.7939 150.731 29.1444C152.16 29.4949 153.592 29.6721 155.024 29.6721C156.321 29.6721 157.502 29.4949 158.568 29.1444C159.635 28.7939 160.546 28.3084 161.303 27.6857C162.059 27.0652 162.646 26.3105 163.065 25.4178C163.485 24.5273 163.695 23.5418 163.695 22.4604C163.695 20.9203 163.098 19.5183 161.912 18.2482C160.723 16.9782 159.144 16.0463 157.173 15.4527C155.201 14.8598 153.619 14.1289 152.433 13.2661C151.243 12.4002 150.65 11.5374 150.65 10.6715C150.65 10.051 150.764 9.47041 150.995 8.93124C151.222 8.3913 151.54 7.92422 151.944 7.53154C152.352 7.14192 152.832 6.83054 153.382 6.59968C153.937 6.37266 154.539 6.25839 155.186 6.25839C156.402 6.25839 157.49 6.63573 158.449 7.39118C159.407 8.14894 160.195 9.01177 160.819 9.9858C160.899 10.12 160.986 10.2611 161.079 10.4076C161.175 10.558 161.262 10.6983 161.342 10.8333H161.87Z" fill="var(--fill-0, #340C3B)"/>
<path id="Vector_20" d="M177.224 6.5016C178.518 6.5016 179.567 6.99859 180.364 7.99947C181.157 8.99652 181.556 10.3088 181.556 11.9301C181.556 13.6013 181.091 14.9466 180.16 15.9597C179.228 16.9721 177.994 17.4783 176.454 17.4783C176.049 17.4783 175.642 17.4637 175.237 17.4361H173.335V6.5016H177.224ZM174.753 28.86C174.402 28.86 174.132 28.8063 173.94 28.6981C173.752 28.59 173.611 28.2817 173.515 27.7663C173.422 27.254 173.368 26.4632 173.353 25.3964C173.341 24.3303 173.335 22.8531 173.335 20.9626V18.6947H176.454C178.021 18.6947 179.438 18.5329 180.705 18.2062C181.976 17.8825 183.063 17.4246 183.968 16.831C184.873 16.2351 185.574 15.5187 186.074 14.6835C186.574 13.8475 186.823 12.9272 186.823 11.9301C186.823 10.9293 186.595 10.0181 186.133 9.19439C185.676 8.37068 185.028 7.66968 184.189 7.08833C183.353 6.50697 182.341 6.05523 181.151 5.73158C179.965 5.40792 178.653 5.24609 177.224 5.24609H166.933V5.85122C167.31 5.85122 167.595 5.90491 167.784 6.01305C167.973 6.12043 168.108 6.43258 168.188 6.94491C168.269 7.4603 168.317 8.24797 168.332 9.31481C168.344 10.3809 168.35 11.8611 168.35 13.7517V20.9626C168.35 22.8531 168.344 24.3303 168.332 25.3964C168.317 26.4632 168.269 27.254 168.188 27.7663C168.108 28.2817 167.973 28.59 167.784 28.6981C167.595 28.8063 167.31 28.86 166.933 28.86V29.4682H174.753V28.86Z" fill="var(--fill-0, #340C3B)"/>
<path id="Vector_21" d="M194.886 17.3555C194.886 15.8722 195.047 14.461 195.371 13.1219C195.694 11.7859 196.174 10.6116 196.809 9.59926C197.444 8.5861 198.235 7.7831 199.178 7.19024C200.126 6.59431 201.219 6.2975 202.46 6.2975C203.703 6.2975 204.796 6.59431 205.743 7.19024C206.686 7.7831 207.472 8.5861 208.091 9.59926C208.712 10.6116 209.185 11.7859 209.509 13.1219C209.832 14.461 209.994 15.8722 209.994 17.3555C209.994 18.8411 209.832 20.2523 209.509 21.5883C209.185 22.9282 208.712 24.1024 208.091 25.1148C207.472 26.1272 206.686 26.9302 205.743 27.5238C204.796 28.1198 203.703 28.4166 202.46 28.4166C201.219 28.4166 200.126 28.1198 199.178 27.5238C198.235 26.9302 197.444 26.1272 196.809 25.1148C196.174 24.1024 195.694 22.9282 195.371 21.5883C195.047 20.2523 194.886 18.8411 194.886 17.3555ZM189.376 17.3555C189.376 19.0029 189.651 20.576 190.206 22.0769C190.76 23.5748 191.584 24.884 192.678 26.0045C193.771 27.125 195.134 28.0178 196.77 28.6804C198.403 29.3392 200.299 29.6721 202.46 29.6721C204.622 29.6721 206.513 29.3392 208.13 28.6804C209.751 28.0178 211.108 27.125 212.202 26.0045C213.295 24.884 214.12 23.5748 214.673 22.0769C215.228 20.576 215.503 19.0029 215.503 17.3555C215.503 15.6835 215.228 14.1021 214.673 12.6157C214.12 11.1332 213.295 9.82934 212.202 8.70882C211.108 7.58906 209.751 6.69555 208.13 6.03367C206.513 5.37178 204.622 5.04199 202.46 5.04199C200.299 5.04199 198.403 5.37178 196.77 6.03367C195.134 6.69555 193.771 7.58906 192.678 8.70882C191.584 9.82934 190.76 11.1332 190.206 12.6157C189.651 14.1021 189.376 15.6835 189.376 17.3555Z" fill="var(--fill-0, #340C3B)"/>
<path id="Vector_22" d="M225.752 29.4682H233.571V28.86C233.22 28.86 232.947 28.8063 232.759 28.6981C232.57 28.59 232.43 28.2817 232.334 27.7663C232.241 27.254 232.187 26.4632 232.172 25.3964C232.16 24.3303 232.154 22.8531 232.154 20.9626V6.5016C233.745 6.5016 235.021 6.53458 235.98 6.59977C236.939 6.6688 237.709 6.78308 238.289 6.94491C238.871 7.1098 239.329 7.34296 239.667 7.65434C240.003 7.96649 240.375 8.39139 240.782 8.93133L241.106 9.3777H241.591C241.537 8.83546 241.489 8.24797 241.45 7.61599C241.408 6.98095 241.36 6.39346 241.306 5.85122L241.267 5.24609H217.935L217.894 5.89341H217.935C217.881 6.43258 217.833 7.01393 217.792 7.63363C217.752 8.25717 217.704 8.83546 217.65 9.3777H218.136L218.46 8.93133C218.867 8.39139 219.244 7.96649 219.595 7.65434C219.945 7.34296 220.413 7.1098 220.991 6.94491C221.572 6.78308 222.342 6.6688 223.301 6.59977C224.259 6.53458 225.551 6.5016 227.168 6.5016V20.9626C227.168 22.8531 227.163 24.3303 227.151 25.3964C227.135 26.4632 227.088 27.254 227.007 27.7663C226.926 28.2817 226.791 28.59 226.602 28.6981C226.414 28.8063 226.129 28.86 225.752 28.86V29.4682Z" fill="var(--fill-0, #340C3B)"/>
<path id="Vector_23" fill-rule="evenodd" clip-rule="evenodd" d="M0 23.9498C0 10.7221 10.7221 0 23.9498 0C37.1706 0.0122713 47.8873 10.7282 47.8988 23.9498C47.8988 37.1768 37.1768 47.8988 23.9498 47.8988C10.7221 47.8988 0 37.1768 0 23.9498ZM17.403 23.9498C17.403 25.825 17.4813 27.6795 17.6462 29.4681C19.74 29.6897 21.843 29.8002 23.9498 29.7979C25.9539 29.7979 27.7992 29.7043 29.5455 29.5402C29.7104 27.793 29.8063 25.9239 29.8063 23.9498C29.8063 11.6631 26.2837 3.505 23.9498 3.505C23.416 3.505 22.8922 3.53491 22.3676 3.57096C20.6572 5.18003 18.8687 9.26945 17.9698 15.5785C19.9409 15.3844 21.9572 15.2916 23.9498 15.2916V17.3977C21.7448 17.3977 19.6594 17.502 17.7121 17.6968C17.6761 18.1017 17.604 18.4937 17.604 18.8986C17.5534 19.5099 17.4813 20.1326 17.4813 20.7531C17.403 21.7923 17.403 22.8768 17.403 23.9498ZM15.8154 15.8216C16.4328 11.4177 17.538 6.96858 19.3059 4.04417C11.7352 5.83041 5.82428 11.7414 4.04417 19.3151C6.8336 17.6247 11.1033 16.4474 15.8154 15.8216ZM32.8082 15.9082C36.9697 16.5195 41.0921 17.6339 43.8516 19.2997C42.1497 12.0673 36.6675 6.32434 29.5248 4.28116C31.1186 7.19943 32.2184 11.3395 32.8082 15.9082ZM3.5863 22.3108C3.5142 22.85 3.5142 23.3953 3.5142 23.9498C3.5142 25.723 8.07683 28.096 15.5133 29.2012C15.3691 27.4816 15.297 25.7322 15.297 23.9498C15.297 22.8408 15.3269 21.7295 15.3783 20.645C15.4113 20.0069 15.4527 19.3657 15.5071 18.7245L15.57 17.9576C9.57164 18.8058 5.26057 20.5069 3.5863 22.3108ZM33.3121 23.9498C33.3121 25.6662 33.24 27.398 33.1111 29.0876C40.1242 27.9372 44.3701 25.6302 44.3908 23.9705C44.3908 23.4313 44.3279 22.9067 44.3279 22.3829C42.7817 20.7079 38.9438 18.9975 33.0452 18.0711C33.2185 19.9977 33.3121 21.9718 33.3121 23.9498ZM23.9498 33.3059C16.4328 33.3059 8.853 32.0174 4.29036 29.5187C6.32434 36.679 12.0827 42.1735 19.3296 43.8754C17.8916 41.2899 16.903 38.4829 16.3968 35.5677L18.4576 35.1451C19.4853 40.0644 20.9594 43.0394 22.3614 44.3394C22.886 44.4053 23.416 44.4053 23.9498 44.4053C25.6363 44.4053 27.9433 40.0943 29.0938 33.1019C27.398 33.2338 25.6724 33.3059 23.9498 33.3059ZM32.7154 32.7069C32.1041 36.9904 31.035 40.8497 29.5248 43.6085C36.3408 41.6581 41.6673 36.3316 43.6146 29.5187C40.8559 31.035 37.0264 32.0987 32.7154 32.7069Z" fill="var(--fill-0, #340C3B)"/>
<path id="Vector_24" d="M58.3096 0H59.1064V47.8988H58.3096V0Z" fill="var(--fill-0, #340C3B)"/>
</g>
<defs>
<clipPath id="clip0_0_84">
<rect width="241.592" height="47.898" fill="white"/>
</clipPath>
</defs>
</svg>
