<svg preserveAspectRatio="none" width="100%" height="100%" overflow="visible" style="display: block;" viewBox="0 0 1470 402" fill="none" xmlns="http://www.w3.org/2000/svg">
<g id="Grid" clip-path="url(#clip0_0_148)">
<path id="Vector" d="M0 58.6758H1470" stroke="var(--stroke-0, #F4F4F4)" stroke-width="1.05"/>
<path id="Vector_2" d="M0 115.78H1470" stroke="var(--stroke-0, #F4F4F4)" stroke-width="1.05"/>
<path id="Vector_3" d="M0 172.886H1470" stroke="var(--stroke-0, #F4F4F4)" stroke-width="1.05"/>
<path id="Vector_4" d="M0 229.99H1470" stroke="var(--stroke-0, #F4F4F4)" stroke-width="1.05"/>
<path id="Vector_5" d="M0 287.094H1470" stroke="var(--stroke-0, #F4F4F4)" stroke-width="1.05"/>
<path id="Vector_6" d="M0 344.197H1470" stroke="var(--stroke-0, #F4F4F4)" stroke-width="1.05"/>
<path id="Vector_7" d="M0 0.297997V401.866" stroke="var(--stroke-0, #F4F4F4)" stroke-width="1.05"/>
<path id="Vector_8" d="M52 0.297997V401.866" stroke="var(--stroke-0, #F4F4F4)" stroke-width="1.05"/>
<path id="Vector_9" d="M105 0.297997V401.866" stroke="var(--stroke-0, #F4F4F4)" stroke-width="1.05"/>
<path id="Vector_10" d="M158 0.297997V401.866" stroke="var(--stroke-0, #F4F4F4)" stroke-width="1.05"/>
<path id="Vector_11" d="M210 0.297997V401.866" stroke="var(--stroke-0, #F4F4F4)" stroke-width="1.05"/>
<path id="Vector_12" d="M263 0.297997V401.866" stroke="var(--stroke-0, #F4F4F4)" stroke-width="1.05"/>
<path id="Vector_13" d="M315 0.297997V401.866" stroke="var(--stroke-0, #F4F4F4)" stroke-width="1.05"/>
<path id="Vector_14" d="M368 0.297997V401.866" stroke="var(--stroke-0, #F4F4F4)" stroke-width="1.05"/>
<path id="Vector_15" d="M420 0.297997V401.866" stroke="var(--stroke-0, #F4F4F4)" stroke-width="1.05"/>
<path id="Vector_16" d="M472 0.297997V401.866" stroke="var(--stroke-0, #F4F4F4)" stroke-width="1.05"/>
<path id="Vector_17" d="M525 0.297997V401.866" stroke="var(--stroke-0, #F4F4F4)" stroke-width="1.05"/>
<path id="Vector_18" d="M577 0.297997V401.866" stroke="var(--stroke-0, #F4F4F4)" stroke-width="1.05"/>
<path id="Vector_19" d="M630 0.297997V401.866" stroke="var(--stroke-0, #F4F4F4)" stroke-width="1.05"/>
<path id="Vector_20" d="M683 0.297997V401.866" stroke="var(--stroke-0, #F4F4F4)" stroke-width="1.05"/>
<path id="Vector_21" d="M735 0.297997V401.866" stroke="var(--stroke-0, #F4F4F4)" stroke-width="1.05"/>
<path id="Vector_22" d="M788 0.297997V401.866" stroke="var(--stroke-0, #F4F4F4)" stroke-width="1.05"/>
<path id="Vector_23" d="M840 0.297997V401.866" stroke="var(--stroke-0, #F4F4F4)" stroke-width="1.05"/>
<path id="Vector_24" d="M893 0.297997V401.866" stroke="var(--stroke-0, #F4F4F4)" stroke-width="1.05"/>
<path id="Vector_25" d="M945 0.297997V401.866" stroke="var(--stroke-0, #F4F4F4)" stroke-width="1.05"/>
<path id="Vector_26" d="M998 0.297997V401.866" stroke="var(--stroke-0, #F4F4F4)" stroke-width="1.05"/>
<path id="Vector_27" d="M1050 0.297997V401.866" stroke="var(--stroke-0, #F4F4F4)" stroke-width="1.05"/>
<path id="Vector_28" d="M1103 0.297997V401.866" stroke="var(--stroke-0, #F4F4F4)" stroke-width="1.05"/>
<path id="Vector_29" d="M1155 0.297997V401.866" stroke="var(--stroke-0, #F4F4F4)" stroke-width="1.05"/>
<path id="Vector_30" d="M1207 0.297997V401.866" stroke="var(--stroke-0, #F4F4F4)" stroke-width="1.05"/>
<path id="Vector_31" d="M1260 0.297997V401.866" stroke="var(--stroke-0, #F4F4F4)" stroke-width="1.05"/>
<path id="Vector_32" d="M1313 0.297997V401.866" stroke="var(--stroke-0, #F4F4F4)" stroke-width="1.05"/>
<path id="Vector_33" d="M1365 0.297997V401.866" stroke="var(--stroke-0, #F4F4F4)" stroke-width="1.05"/>
<path id="Vector_34" d="M1418 0.297997V401.866" stroke="var(--stroke-0, #F4F4F4)" stroke-width="1.05"/>
<path id="Vector_35" d="M1470 0.297997V401.866" stroke="var(--stroke-0, #F4F4F4)" stroke-width="1.05"/>
</g>
<defs>
<clipPath id="clip0_0_148">
<rect width="1470" height="402" fill="white"/>
</clipPath>
</defs>
</svg>
