<svg preserveAspectRatio="none" width="100%" height="100%" overflow="visible" style="display: block;" viewBox="0 0 32.6667 32" fill="none" xmlns="http://www.w3.org/2000/svg">
<g id="Chevron">
<rect width="32.6667" height="32" rx="16" fill="var(--fill-0, #340C3B)"/>
<path id="Vector" d="M21.658 16.0021C20.4351 16.6225 18.4611 18.1455 16.9879 19.6431C15.1421 21.5195 14.0905 22.7273 13.4896 24L11 22.7709C11.2432 22.0232 13.5545 18.8023 15.2924 17.4C16.8204 16.1672 17.0871 16.0183 17.1292 16.0003C17.0848 15.9851 16.8005 15.8472 15.2924 14.6C13.5968 13.1978 11.2432 9.97685 11 9.22911L13.4896 8C14.0905 9.27261 15.1421 10.4805 16.9879 12.3569C18.4611 13.8545 20.4351 15.3775 21.658 15.9979H21.6667L21.6624 16L21.6667 16.0021H21.658Z" fill="var(--fill-0, white)"/>
</g>
</svg>
