<svg preserveAspectRatio="none" width="100%" height="100%" overflow="visible" style="display: block;" viewBox="0 0 32 32" fill="none" xmlns="http://www.w3.org/2000/svg">
<g id="Chevron">
<rect width="32" height="32" rx="16" fill="var(--fill-0, #340C3B)"/>
<path id="Vector" d="M21.4276 16.002C20.1929 16.6283 18.1998 18.166 16.7124 19.6781C14.8488 21.5726 13.7871 22.7921 13.1803 24.0771L10.6667 22.8361C10.9123 22.0812 13.2459 18.8291 15.0005 17.4133C16.5433 16.1686 16.8125 16.0182 16.8551 16.0001C16.8102 15.9847 16.5232 15.8455 15.0005 14.5863C13.2886 13.1705 10.9123 9.91847 10.6667 9.1635L13.1803 7.92253C13.7871 9.20743 14.8488 10.427 16.7124 12.3215C18.1998 13.8336 20.1929 15.3713 21.4276 15.9976H21.4364L21.4321 15.9998L21.4364 16.002H21.4276Z" fill="var(--fill-0, white)"/>
</g>
</svg>
