<svg preserveAspectRatio="none" width="100%" height="100%" overflow="visible" style="display: block;" viewBox="0 0 48 48" fill="none" xmlns="http://www.w3.org/2000/svg">
<g id="mdi:instagram">
<path id="Vector" d="M18.75 11.5H29.25C33.25 11.5 36.5 14.75 36.5 18.75V29.25C36.5 31.1728 35.7362 33.0169 34.3765 34.3765C33.0169 35.7362 31.1728 36.5 29.25 36.5H18.75C14.75 36.5 11.5 33.25 11.5 29.25V18.75C11.5 16.8272 12.2638 14.9831 13.6235 13.6235C14.9831 12.2638 16.8272 11.5 18.75 11.5ZM18.5 14C17.3065 14 16.1619 14.4741 15.318 15.318C14.4741 16.1619 14 17.3065 14 18.5V29.5C14 31.9875 16.0125 34 18.5 34H29.5C30.6935 34 31.8381 33.5259 32.682 32.682C33.5259 31.8381 34 30.6935 34 29.5V18.5C34 16.0125 31.9875 14 29.5 14H18.5ZM30.5625 15.875C30.9769 15.875 31.3743 16.0396 31.6674 16.3326C31.9604 16.6257 32.125 17.0231 32.125 17.4375C32.125 17.8519 31.9604 18.2493 31.6674 18.5424C31.3743 18.8354 30.9769 19 30.5625 19C30.1481 19 29.7507 18.8354 29.4576 18.5424C29.1646 18.2493 29 17.8519 29 17.4375C29 17.0231 29.1646 16.6257 29.4576 16.3326C29.7507 16.0396 30.1481 15.875 30.5625 15.875ZM24 17.75C25.6576 17.75 27.2473 18.4085 28.4194 19.5806C29.5915 20.7527 30.25 22.3424 30.25 24C30.25 25.6576 29.5915 27.2473 28.4194 28.4194C27.2473 29.5915 25.6576 30.25 24 30.25C22.3424 30.25 20.7527 29.5915 19.5806 28.4194C18.4085 27.2473 17.75 25.6576 17.75 24C17.75 22.3424 18.4085 20.7527 19.5806 19.5806C20.7527 18.4085 22.3424 17.75 24 17.75ZM24 20.25C23.0054 20.25 22.0516 20.6451 21.3483 21.3483C20.6451 22.0516 20.25 23.0054 20.25 24C20.25 24.9946 20.6451 25.9484 21.3483 26.6517C22.0516 27.3549 23.0054 27.75 24 27.75C24.9946 27.75 25.9484 27.3549 26.6517 26.6517C27.3549 25.9484 27.75 24.9946 27.75 24C27.75 23.0054 27.3549 22.0516 26.6517 21.3483C25.9484 20.6451 24.9946 20.25 24 20.25Z" fill="var(--fill-0, #7D7D7D)"/>
</g>
</svg>
