<svg preserveAspectRatio="none" width="100%" height="100%" overflow="visible" style="display: block;" viewBox="0 0 134.593 94.72" fill="none" xmlns="http://www.w3.org/2000/svg">
<g id="9+">
<path d="M33.792 94.72C16.256 94.72 6.4 87.936 1.408 74.496C0.128 70.784 1.024 69.12 4.48 67.84L14.976 64.128C18.56 62.848 20.224 63.616 21.76 67.584C23.68 72.32 27.264 74.24 33.408 74.24C41.6 74.24 45.312 71.04 45.312 61.824V57.216C41.472 58.24 37.12 58.752 32.64 58.752C9.984 58.752 0 49.664 0 29.952C0 11.008 12.8 0 33.92 0C56.192 0 67.968 12.672 67.968 34.176V60.928C67.968 82.56 55.808 94.72 33.792 94.72ZM33.92 39.808C38.656 39.808 42.368 39.04 45.312 38.016V32.384C45.312 24.448 42.368 19.968 33.92 19.968C25.984 19.968 22.656 23.552 22.656 29.952C22.656 36.224 25.984 39.808 33.92 39.808Z" fill="var(--fill-0, black)"/>
<path d="M101.441 82.176C97.473 82.176 96.321 80.896 96.321 76.928V60.416H82.241C78.401 60.416 77.121 59.136 77.121 55.168V46.592C77.121 42.624 78.401 41.344 82.241 41.344H96.321V24.96C96.321 20.992 97.473 19.712 101.441 19.712H110.273C114.113 19.712 115.393 20.992 115.393 24.96V41.344H129.473C133.313 41.344 134.593 42.624 134.593 46.592V55.168C134.593 59.136 133.313 60.416 129.473 60.416H115.393V76.928C115.393 80.896 114.113 82.176 110.273 82.176H101.441Z" fill="var(--fill-0, black)"/>
</g>
</svg>
