<svg preserveAspectRatio="none" width="100%" height="100%" overflow="visible" style="display: block;" viewBox="0 0 201.327 39.915" fill="none" xmlns="http://www.w3.org/2000/svg">
<g id="Frame" clip-path="url(#clip0_0_80)">
<path id="Vector" d="M73.9375 32.4935H71.815C71.7281 32.4935 71.7031 32.5286 71.7031 32.6059V32.7606C71.7031 32.838 71.7281 32.8731 71.815 32.8731H73.6627V33.6241C73.6627 34.6678 72.9788 35.3344 71.7377 35.3344C70.4773 35.3344 69.803 34.6678 69.803 33.5646V31.4498C69.803 30.3613 70.4421 29.7049 71.7281 29.7049C72.851 29.7049 73.3604 30.1114 73.618 30.9653C73.6455 31.0426 73.6876 31.0605 73.765 31.0356L73.9197 30.9832C73.997 30.948 74.0245 30.9231 73.997 30.8356C73.7049 29.8519 73.0658 29.3349 71.7281 29.3349C70.1999 29.3349 69.4061 30.1466 69.4061 31.4574V33.5646C69.4061 34.8851 70.2172 35.7038 71.7351 35.7038C73.2383 35.7038 74.0494 34.8851 74.0494 33.6241V32.613C74.0494 32.5286 74.0245 32.4935 73.9375 32.4935Z" fill="var(--fill-0, #340C3B)"/>
<path id="Vector_2" d="M77.4919 29.4551H77.3097C77.2247 29.4551 77.1973 29.48 77.1973 29.5676V35.4719C77.1973 35.5594 77.2247 35.5844 77.3097 35.5844H80.7374C80.8147 35.5844 80.8422 35.5594 80.8422 35.4719V35.3172C80.8422 35.2399 80.8147 35.2124 80.7374 35.2124H77.5942V29.5676C77.5942 29.48 77.5692 29.4551 77.4919 29.4551Z" fill="var(--fill-0, #340C3B)"/>
<path id="Vector_3" d="M83.3515 31.467V33.5717C83.3515 34.8928 84.1632 35.7038 85.6831 35.7038C87.1838 35.7038 87.9955 34.8928 87.9955 33.5717V31.467C87.9955 30.1466 87.1838 29.3349 85.6831 29.3349C84.1632 29.3349 83.3515 30.1466 83.3515 31.467ZM87.5986 31.467V33.5717C87.5986 34.678 86.9268 35.3344 85.6831 35.3344C84.4227 35.3344 83.7484 34.678 83.7484 33.5717V31.467C83.7484 30.3613 84.4227 29.7049 85.6831 29.7049C86.9268 29.7049 87.5986 30.3613 87.5986 31.467Z" fill="var(--fill-0, #340C3B)"/>
<path id="Vector_4" d="M93.7995 29.4551H91.3478C91.2603 29.4551 91.2354 29.48 91.2354 29.5676V35.4719C91.2354 35.5594 91.2603 35.5844 91.3478 35.5844H93.9095C94.9628 35.5844 95.6294 35.0053 95.6294 33.9514C95.6294 33.1077 95.2325 32.5881 94.5237 32.4334V32.4162C95.1098 32.2091 95.4223 31.7342 95.4223 31.0005C95.4223 29.9996 94.8254 29.4551 93.7995 29.4551ZM95.0152 31.0427C95.0152 31.864 94.5582 32.2788 93.7542 32.2788H91.6323V29.8271H93.7542C94.5659 29.8271 95.0152 30.2412 95.0152 31.0427ZM95.2152 33.9188C95.2152 34.7631 94.7378 35.2124 93.8941 35.2124H91.6323V32.6405H93.8941C94.7378 32.6405 95.2152 33.0898 95.2152 33.9188Z" fill="var(--fill-0, #340C3B)"/>
<path id="Vector_5" d="M103.273 35.4797L100.884 29.5153C100.856 29.438 100.814 29.4131 100.736 29.4131H100.564C100.487 29.4131 100.452 29.438 100.417 29.5153L98.0251 35.4797C98.0002 35.5417 98.0174 35.5845 98.1024 35.5845H98.2501C98.3798 35.5845 98.422 35.5666 98.4495 35.4893L99.2088 33.5821H102.075L102.844 35.4893C102.861 35.5666 102.904 35.5845 103.033 35.5845H103.188C103.283 35.5845 103.301 35.5417 103.273 35.4797ZM100.736 30.1794L101.962 33.2453H99.3283L100.554 30.1794C100.617 30.0068 100.624 29.8522 100.624 29.81H100.649C100.659 29.8522 100.677 30.0068 100.736 30.1794Z" fill="var(--fill-0, #340C3B)"/>
<path id="Vector_6" d="M106.371 29.455H106.189C106.101 29.455 106.076 29.48 106.076 29.5675V35.4718C106.076 35.5594 106.101 35.5843 106.189 35.5843H109.616C109.694 35.5843 109.719 35.5594 109.719 35.4718V35.3172C109.719 35.2398 109.694 35.2123 109.616 35.2123H106.473V29.5675C106.473 29.48 106.448 29.455 106.371 29.455Z" fill="var(--fill-0, #340C3B)"/>
<path id="Vector_7" d="M116.123 31.0529C116.123 32.3913 117.296 32.5709 118.375 32.7006C119.316 32.8131 120.212 32.9429 120.212 33.9616C120.212 34.875 119.576 35.3249 118.333 35.3249C117.364 35.3249 116.752 34.9203 116.38 34.0466C116.337 33.9616 116.312 33.9514 116.233 33.9789L116.07 34.039C115.983 34.0735 115.976 34.1086 116.011 34.1936C116.425 35.222 117.124 35.7039 118.333 35.7039C119.833 35.7039 120.612 35.0648 120.612 33.9437C120.612 32.6131 119.513 32.4335 118.463 32.3114C117.486 32.2091 116.527 32.0442 116.527 31.0255C116.527 30.1965 117.174 29.7146 118.287 29.7146C119.256 29.7146 119.8 30.077 120.188 30.8459C120.23 30.9232 120.257 30.9232 120.325 30.8957L120.499 30.8184C120.567 30.7935 120.595 30.7506 120.549 30.6707C120.103 29.7574 119.446 29.335 118.287 29.335C116.924 29.335 116.123 29.9997 116.123 31.0529Z" fill="var(--fill-0, #340C3B)"/>
<path id="Vector_8" d="M123.532 31.467V33.5717C123.532 34.8928 124.344 35.7038 125.864 35.7038C127.364 35.7038 128.176 34.8928 128.176 33.5717V31.467C128.176 30.1466 127.364 29.3349 125.864 29.3349C124.344 29.3349 123.532 30.1466 123.532 31.467ZM127.779 31.467V33.5717C127.779 34.678 127.107 35.3344 125.864 35.3344C124.603 35.3344 123.929 34.678 123.929 33.5717V31.467C123.929 30.3613 124.603 29.7049 125.864 29.7049C127.107 29.7049 127.779 30.3613 127.779 31.467Z" fill="var(--fill-0, #340C3B)"/>
<path id="Vector_9" d="M131.698 29.4551H131.518C131.431 29.4551 131.406 29.48 131.406 29.5676V35.4719C131.406 35.5594 131.431 35.5844 131.518 35.5844H134.944C135.021 35.5844 135.049 35.5594 135.049 35.4719V35.3172C135.049 35.2399 135.021 35.2124 134.944 35.2124H131.803V29.5676C131.803 29.48 131.776 29.4551 131.698 29.4551Z" fill="var(--fill-0, #340C3B)"/>
<path id="Vector_10" d="M138.017 33.5123V29.5676C138.017 29.48 137.99 29.4551 137.912 29.4551H137.733C137.645 29.4551 137.62 29.48 137.62 29.5676V33.5123C137.62 34.85 138.369 35.7141 139.897 35.7141C141.418 35.7141 142.169 34.85 142.169 33.5123V29.5676C142.169 29.48 142.141 29.4551 142.064 29.4551H141.874C141.797 29.4551 141.772 29.48 141.772 29.5676V33.5123C141.772 34.6257 141.158 35.3421 139.897 35.3421C138.629 35.3421 138.017 34.6257 138.017 33.5123Z" fill="var(--fill-0, #340C3B)"/>
<path id="Vector_11" d="M149.183 29.455H145.041C144.953 29.455 144.929 29.48 144.929 29.5675V29.7222C144.929 29.7995 144.953 29.827 145.041 29.827H146.913V35.4718C146.913 35.5594 146.938 35.5843 147.026 35.5843H147.208C147.285 35.5843 147.31 35.5594 147.31 35.4718V29.827H149.183C149.27 29.827 149.295 29.7995 149.295 29.7222V29.5675C149.295 29.48 149.27 29.455 149.183 29.455Z" fill="var(--fill-0, #340C3B)"/>
<path id="Vector_12" d="M152.051 29.5675V35.4718C152.051 35.5594 152.076 35.5843 152.163 35.5843H152.343C152.42 35.5843 152.447 35.5594 152.447 35.4718V29.5675C152.447 29.48 152.42 29.455 152.343 29.455H152.163C152.076 29.455 152.051 29.48 152.051 29.5675Z" fill="var(--fill-0, #340C3B)"/>
<path id="Vector_13" d="M155.632 31.4671V33.5718C155.632 34.8929 156.443 35.7039 157.963 35.7039C159.467 35.7039 160.278 34.8929 160.278 33.5718V31.4671C160.278 30.1467 159.467 29.335 157.963 29.335C156.443 29.335 155.632 30.1467 155.632 31.4671ZM159.881 31.4671V33.5718C159.881 34.6781 159.207 35.3345 157.963 35.3345C156.703 35.3345 156.029 34.6781 156.029 33.5718V31.4671C156.029 30.3614 156.703 29.705 157.963 29.705C159.207 29.705 159.881 30.3614 159.881 31.4671Z" fill="var(--fill-0, #340C3B)"/>
<path id="Vector_14" d="M167.937 29.455H167.764C167.677 29.455 167.651 29.48 167.651 29.5573V33.4522C167.651 34.0466 167.712 34.6256 167.712 35.0053H167.694C167.487 34.7125 167.22 34.2287 166.901 33.7717L163.922 29.5151C163.904 29.4902 163.87 29.455 163.802 29.455H163.63C163.543 29.455 163.518 29.48 163.518 29.5675V35.4718C163.518 35.5594 163.543 35.5843 163.63 35.5843H163.802C163.879 35.5843 163.904 35.5594 163.904 35.4718V31.4498C163.904 30.9052 163.852 30.3537 163.852 30.0245H163.87C164.052 30.2738 164.284 30.741 164.568 31.1475L167.634 35.514C167.669 35.5741 167.694 35.5843 167.754 35.5843H167.937C168.014 35.5843 168.039 35.5594 168.039 35.4718V29.5675C168.039 29.48 168.014 29.455 167.937 29.455Z" fill="var(--fill-0, #340C3B)"/>
<path id="Vector_15" d="M171.233 31.0529C171.233 32.3913 172.406 32.5709 173.487 32.7006C174.426 32.8131 175.324 32.9429 175.324 33.9616C175.324 34.875 174.685 35.3249 173.442 35.3249C172.476 35.3249 171.864 34.9203 171.492 34.0466C171.45 33.9616 171.423 33.9514 171.345 33.9789L171.18 34.039C171.095 34.0735 171.086 34.1086 171.12 34.1936C171.535 35.222 172.234 35.7039 173.442 35.7039C174.945 35.7039 175.722 35.0648 175.722 33.9437C175.722 32.6131 174.626 32.4335 173.572 32.3114C172.596 32.2091 171.64 32.0442 171.64 31.0255C171.64 30.1965 172.286 29.7146 173.4 29.7146C174.366 29.7146 174.91 30.077 175.3 30.8459C175.342 30.9232 175.367 30.9232 175.437 30.8957L175.61 30.8184C175.679 30.7935 175.704 30.7506 175.662 30.6707C175.213 29.7574 174.556 29.335 173.4 29.335C172.037 29.335 171.233 29.9997 171.233 31.0529Z" fill="var(--fill-0, #340C3B)"/>
<path id="Vector_16" d="M68.3566 24.5571H74.8706V24.0503C74.5785 24.0503 74.3536 24.0056 74.1963 23.9154C74.0391 23.8253 73.9189 23.5684 73.8416 23.1389C73.7617 22.712 73.717 22.053 73.7068 21.164C73.6946 20.2756 73.6895 19.0446 73.6895 17.4692V5.41833C75.0176 5.41833 76.0811 5.44581 76.88 5.50014C77.679 5.55766 78.3206 5.65289 78.8025 5.78775C79.287 5.92516 79.6686 6.11946 79.9511 6.37894C80.2329 6.63907 80.5429 6.99315 80.8797 7.4431L81.1494 7.81507H81.554C81.5086 7.36321 81.4716 6.87363 81.4364 6.34699C81.4038 5.81779 81.3642 5.32821 81.3188 4.87635L81.2843 4.37207H61.8406L61.8055 4.9115H61.8406C61.7959 5.36081 61.7556 5.84527 61.723 6.36169C61.6885 6.8813 61.6483 7.36321 61.6035 7.81507H62.01L62.2797 7.4431C62.6172 6.99315 62.9316 6.63907 63.2237 6.37894C63.5184 6.11946 63.905 5.92516 64.3895 5.78775C64.874 5.65289 65.5156 5.55766 66.3146 5.50014C67.1135 5.44581 68.1872 5.41833 69.5377 5.41833V17.4692C69.5377 19.0446 69.5326 20.2756 69.5198 21.164C69.5102 22.053 69.4699 22.712 69.4028 23.1389C69.3351 23.5684 69.2232 23.8253 69.0654 23.9154C68.9056 24.0056 68.671 24.0503 68.3566 24.0503V24.5571Z" fill="var(--fill-0, #340C3B)"/>
<path id="Vector_17" d="M95.6651 15.6464V12.1017H95.2605L95.1257 12.2711C94.9908 12.4737 94.8336 12.6405 94.654 12.7754C94.4738 12.9102 94.1568 13.0125 93.7075 13.0802C93.2581 13.1473 92.6216 13.1972 91.8003 13.2324C90.979 13.2649 89.8605 13.2822 88.4423 13.2822V5.41833C90.2421 5.41833 91.6654 5.43303 92.7117 5.46818C93.7573 5.50014 94.5786 5.57556 95.1755 5.6874C95.7725 5.79989 96.2167 5.97949 96.5088 6.22683C96.8034 6.47417 97.0955 6.81355 97.3876 7.24049L97.6247 7.57732H97.9941V4.37207H83.0742V4.87635C83.3893 4.87635 83.6264 4.92108 83.7837 5.0112C83.9409 5.10068 84.0534 5.36081 84.1205 5.78775C84.1882 6.21724 84.2279 6.87363 84.2381 7.76266C84.2502 8.65106 84.2553 9.88458 84.2553 11.46V17.4692C84.2553 19.0446 84.2502 20.2756 84.2381 21.164C84.2279 22.053 84.1882 22.712 84.1205 23.1389C84.0534 23.5684 83.9409 23.8253 83.7837 23.9154C83.6264 24.0056 83.3893 24.0503 83.0742 24.0503V24.5571H97.927L98.0293 24.0503H98.0619C98.129 23.6457 98.2037 23.1964 98.2811 22.7024C98.361 22.2051 98.4338 21.7558 98.5009 21.3512H98.129L97.8267 21.6887C97.4649 22.1156 97.1102 22.4525 96.7631 22.7024C96.4142 22.9491 95.9246 23.1293 95.2957 23.2412C94.6636 23.3536 93.8148 23.4259 92.7462 23.461C91.6776 23.4936 90.2421 23.5109 88.4423 23.5109V14.2959C89.8605 14.2959 90.979 14.3138 91.8003 14.3457C92.6216 14.3809 93.2581 14.441 93.7075 14.5304C94.1568 14.6205 94.4738 14.7356 94.654 14.8704C94.8336 15.0053 94.9908 15.1945 95.1257 15.4444L95.2605 15.6464H95.6651Z" fill="var(--fill-0, #340C3B)"/>
<path id="Vector_18" d="M117.607 4.37207H114.299V4.87635H114.402C114.536 4.87635 114.609 4.9115 114.621 4.97861C114.631 5.04635 114.524 5.22595 114.299 5.51803C114.074 5.81012 113.708 6.23961 113.203 6.80141C112.696 7.36321 111.993 8.13911 111.093 9.13041L109.708 10.6157L106.907 13.6868V11.46C106.907 9.88458 106.912 8.65106 106.924 7.76266C106.934 6.87363 106.979 6.21724 107.059 5.78775C107.137 5.36081 107.256 5.10068 107.413 5.0112C107.571 4.92108 107.796 4.87635 108.088 4.87635V4.37207H101.574V4.87635C101.889 4.87635 102.123 4.92108 102.28 5.0112C102.44 5.10068 102.553 5.36081 102.62 5.78775C102.688 6.21724 102.727 6.87363 102.737 7.76266C102.75 8.65106 102.755 9.88458 102.755 11.46V17.4692C102.755 19.0446 102.75 20.2756 102.737 21.164C102.727 22.053 102.688 22.712 102.62 23.1389C102.553 23.5684 102.44 23.8253 102.28 23.9154C102.123 24.0056 101.889 24.0503 101.574 24.0503V24.5571H108.088V24.0503C107.796 24.0503 107.571 24.0056 107.413 23.9154C107.256 23.8253 107.137 23.5684 107.059 23.1389C106.979 22.712 106.934 22.053 106.924 21.164C106.912 20.2756 106.907 19.0446 106.907 17.4692V13.6868C107.266 14.2511 107.683 14.88 108.155 15.5792C108.559 16.1634 109.044 16.8773 109.608 17.7216C110.17 18.5653 110.799 19.5067 111.498 20.5402C112.015 21.2841 112.544 21.9182 113.084 22.4474C113.625 22.9766 114.222 23.4112 114.873 23.748C115.525 24.0854 116.234 24.3322 117 24.4894C117.765 24.6466 118.621 24.7271 119.565 24.7271H120.983V23.9154C120.533 23.9154 120.076 23.803 119.617 23.5786C119.155 23.3536 118.666 22.9893 118.149 22.4825C117.63 21.9757 117.055 21.3116 116.426 20.4903C115.797 19.6684 115.088 18.6624 114.299 17.4692C113.401 16.1187 112.607 14.9376 111.92 13.9239C111.233 12.9102 110.699 12.1241 110.317 11.5623L110.417 11.46C111.812 9.90695 112.921 8.69132 113.743 7.81507C114.564 6.93627 115.206 6.27668 115.668 5.84016C116.127 5.40043 116.476 5.13072 116.713 5.02846C116.948 4.92875 117.181 4.87635 117.405 4.87635H117.607V4.37207Z" fill="var(--fill-0, #340C3B)"/>
<path id="Vector_19" d="M134.892 9.02823L134.927 5.78783C134.138 5.31552 133.272 4.93395 132.325 4.64187C131.381 4.34979 130.515 4.20215 129.727 4.20215C128.67 4.20215 127.706 4.35426 126.84 4.65657C125.974 4.96144 125.232 5.38838 124.614 5.93995C123.994 6.49152 123.515 7.16069 123.178 7.95002C122.841 8.73615 122.671 9.60217 122.671 10.5487C122.671 11.742 123.138 12.8381 124.072 13.839C125.008 14.8405 126.251 15.5793 127.804 16.051C128.658 16.2984 129.429 16.5904 130.116 16.9273C130.802 17.2673 131.392 17.6265 131.888 18.0087C132.383 18.3902 132.765 18.7897 133.034 19.207C133.306 19.6238 133.441 20.0334 133.441 20.4399C133.441 21.4287 133.052 22.218 132.276 22.8022C131.499 23.3889 130.471 23.681 129.187 23.681C128.083 23.681 127.015 23.3985 125.979 22.8367C124.945 22.273 124.134 21.5188 123.55 20.5748C123.482 20.4629 123.41 20.3505 123.33 20.238C123.25 20.1229 123.178 20.0111 123.11 19.8986H122.671L122.639 23.139C123.425 23.6132 124.416 23.9954 125.609 24.2875C126.801 24.5796 127.994 24.7272 129.187 24.7272C130.268 24.7272 131.252 24.5796 132.141 24.2875C133.03 23.9954 133.788 23.5908 134.42 23.0719C135.049 22.5548 135.538 21.9259 135.888 21.182C136.237 20.4399 136.413 19.6186 136.413 18.7175C136.413 17.4341 135.915 16.2658 134.927 15.2074C133.936 14.149 132.62 13.3724 130.977 12.8777C129.334 12.3837 128.016 11.7746 127.028 11.0556C126.036 10.334 125.542 9.61496 125.542 8.89338C125.542 8.37632 125.637 7.89249 125.829 7.44319C126.019 6.99324 126.284 6.60401 126.62 6.27677C126.96 5.95209 127.36 5.6926 127.819 5.50022C128.281 5.31104 128.783 5.21581 129.322 5.21581C130.336 5.21581 131.242 5.53026 132.041 6.15981C132.84 6.79127 133.496 7.51029 134.016 8.32199C134.083 8.43384 134.155 8.55144 134.233 8.67351C134.312 8.79878 134.385 8.91575 134.452 9.02823H134.892Z" fill="var(--fill-0, #340C3B)"/>
<path id="Vector_20" d="M147.687 5.41833C148.766 5.41833 149.64 5.83249 150.304 6.66655C150.965 7.49742 151.298 8.59098 151.298 9.9421C151.298 11.3348 150.91 12.4558 150.134 13.3001C149.358 14.1438 148.329 14.5656 147.046 14.5656C146.709 14.5656 146.369 14.5534 146.032 14.5304H144.447V5.41833H147.687ZM145.628 24.0503C145.336 24.0503 145.111 24.0056 144.951 23.9154C144.794 23.8253 144.676 23.5684 144.596 23.1389C144.519 22.712 144.474 22.053 144.461 21.164C144.452 20.2756 144.447 19.0446 144.447 17.4692V15.5792H147.046C148.351 15.5792 149.532 15.4444 150.588 15.1721C151.647 14.9024 152.554 14.5208 153.307 14.0262C154.061 13.5295 154.645 12.9326 155.062 12.2366C155.479 11.5399 155.687 10.773 155.687 9.9421C155.687 9.10804 155.497 8.34875 155.112 7.66232C154.73 6.97589 154.191 6.39173 153.492 5.90726C152.795 5.4228 151.951 5.04635 150.96 4.77664C149.971 4.50693 148.879 4.37207 147.687 4.37207H139.111V4.87635C139.426 4.87635 139.664 4.92108 139.821 5.0112C139.978 5.10068 140.09 5.36081 140.158 5.78775C140.225 6.21724 140.265 6.87363 140.277 7.76266C140.287 8.65106 140.292 9.88458 140.292 11.46V17.4692C140.292 19.0446 140.287 20.2756 140.277 21.164C140.265 22.053 140.225 22.712 140.158 23.1389C140.09 23.5684 139.978 23.8253 139.821 23.9154C139.664 24.0056 139.426 24.0503 139.111 24.0503V24.5571H145.628V24.0503Z" fill="var(--fill-0, #340C3B)"/>
<path id="Vector_21" d="M162.405 14.4634C162.405 13.2273 162.539 12.0513 162.809 10.9354C163.079 9.82203 163.478 8.84352 164.007 7.99987C164.537 7.15558 165.196 6.48641 165.982 5.99236C166.772 5.49575 167.682 5.24841 168.716 5.24841C169.752 5.24841 170.663 5.49575 171.453 5.99236C172.239 6.48641 172.893 7.15558 173.41 7.99987C173.927 8.84352 174.321 9.82203 174.591 10.9354C174.86 12.0513 174.995 13.2273 174.995 14.4634C174.995 15.7014 174.86 16.8774 174.591 17.9908C174.321 19.1073 173.927 20.0859 173.41 20.9295C172.893 21.7732 172.239 22.4423 171.453 22.937C170.663 23.4336 169.752 23.681 168.716 23.681C167.682 23.681 166.772 23.4336 165.982 22.937C165.196 22.4423 164.537 21.7732 164.007 20.9295C163.478 20.0859 163.079 19.1073 162.809 17.9908C162.539 16.8774 162.405 15.7014 162.405 14.4634ZM157.813 14.4634C157.813 15.8363 158.043 17.1471 158.505 18.3979C158.967 19.6461 159.654 20.7371 160.565 21.6709C161.476 22.6047 162.612 23.3486 163.975 23.9008C165.336 24.4498 166.916 24.7272 168.716 24.7272C170.519 24.7272 172.094 24.4498 173.442 23.9008C174.793 23.3486 175.924 22.6047 176.835 21.6709C177.746 20.7371 178.433 19.6461 178.895 18.3979C179.357 17.1471 179.586 15.8363 179.586 14.4634C179.586 13.0701 179.357 11.7522 178.895 10.5136C178.433 9.27813 177.746 8.19161 176.835 7.25784C175.924 6.32471 174.793 5.58012 173.442 5.02855C172.094 4.47698 170.519 4.20215 168.716 4.20215C166.916 4.20215 165.336 4.47698 163.975 5.02855C162.612 5.58012 161.476 6.32471 160.565 7.25784C159.654 8.19161 158.967 9.27813 158.505 10.5136C158.043 11.7522 157.813 13.0701 157.813 14.4634Z" fill="var(--fill-0, #340C3B)"/>
<path id="Vector_22" d="M188.128 24.5571H194.644V24.0503C194.352 24.0503 194.124 24.0056 193.967 23.9154C193.81 23.8253 193.693 23.5684 193.613 23.1389C193.536 22.712 193.49 22.053 193.478 21.164C193.468 20.2756 193.463 19.0446 193.463 17.4692V5.41833C194.789 5.41833 195.853 5.44581 196.652 5.50014C197.45 5.55766 198.092 5.65289 198.576 5.78775C199.06 5.92516 199.443 6.11946 199.725 6.37894C200.004 6.63907 200.314 6.99315 200.653 7.4431L200.923 7.81507H201.327C201.283 7.36321 201.242 6.87363 201.21 6.34699C201.175 5.81779 201.135 5.32821 201.09 4.87635L201.058 4.37207H181.614L181.58 4.9115H181.614C181.569 5.36081 181.529 5.84527 181.495 6.36169C181.462 6.8813 181.422 7.36321 181.377 7.81507H181.782L182.051 7.4431C182.391 6.99315 182.705 6.63907 182.997 6.37894C183.289 6.11946 183.679 5.92516 184.161 5.78775C184.645 5.65289 185.287 5.55766 186.085 5.50014C186.884 5.44581 187.961 5.41833 189.309 5.41833V17.4692C189.309 19.0446 189.304 20.2756 189.294 21.164C189.281 22.053 189.241 22.712 189.174 23.1389C189.107 23.5684 188.994 23.8253 188.837 23.9154C188.68 24.0056 188.443 24.0503 188.128 24.0503V24.5571Z" fill="var(--fill-0, #340C3B)"/>
<path id="Vector_23" fill-rule="evenodd" clip-rule="evenodd" d="M0 19.9582C0 8.93506 8.93506 0 19.9582 0C30.9755 0.0102261 39.9061 8.94018 39.9157 19.9582C39.9157 30.9806 30.9806 39.9157 19.9582 39.9157C8.93506 39.9157 0 30.9806 0 19.9582ZM14.5025 19.9582C14.5025 21.5208 14.5677 23.0663 14.7051 24.5567C16.45 24.7414 18.2025 24.8335 19.9582 24.8315C21.6282 24.8315 23.166 24.7536 24.6213 24.6168C24.7587 23.1609 24.8386 21.6033 24.8386 19.9582C24.8386 9.71928 21.903 2.92083 19.9582 2.92083C19.5133 2.92083 19.0768 2.94576 18.6396 2.9758C17.2144 4.3167 15.7239 7.72455 14.9749 12.982C16.6174 12.8203 18.2977 12.743 19.9582 12.743V14.4981C18.1207 14.4981 16.3829 14.585 14.7601 14.7473C14.7301 15.0848 14.67 15.4114 14.67 15.7488C14.6278 16.2582 14.5677 16.7772 14.5677 17.2943C14.5025 18.1603 14.5025 19.064 14.5025 19.9582ZM13.1795 13.1846C13.694 9.51475 14.615 5.80715 16.0882 3.37014C9.77936 4.85868 4.85357 9.78447 3.37014 16.0959C5.69466 14.6872 9.25271 13.7062 13.1795 13.1846ZM27.3401 13.2569C30.8081 13.7663 34.2434 14.6949 36.543 16.0831C35.1248 10.0561 30.5563 5.27028 24.604 3.56763C25.9321 5.99953 26.8486 9.44956 27.3401 13.2569ZM2.98858 18.5923C2.9285 19.0417 2.9285 19.4961 2.9285 19.9582C2.9285 21.4358 6.7307 23.4133 12.9277 24.3343C12.8076 22.9014 12.7475 21.4435 12.7475 19.9582C12.7475 19.034 12.7724 18.1079 12.8152 17.2041C12.8427 16.6724 12.8772 16.1381 12.9226 15.6038L12.975 14.9646C7.97636 15.6715 4.38381 17.0891 2.98858 18.5923ZM27.76 19.9582C27.76 21.3885 27.7 22.8317 27.5926 24.2397C33.4368 23.281 36.9751 21.3585 36.9923 19.9754C36.9923 19.5261 36.9399 19.0889 36.9399 18.6524C35.6514 17.2566 32.4532 15.8313 27.5376 15.0592C27.6821 16.6647 27.76 18.3098 27.76 19.9582ZM19.9582 27.7549C13.694 27.7549 7.3775 26.6812 3.5753 24.5989C5.27028 30.5658 10.0689 35.1446 16.108 36.5628C14.9097 34.4083 14.0858 32.0691 13.664 29.6397L15.3813 29.2876C16.2378 33.387 17.4662 35.8662 18.6345 36.9495C19.0717 37.0045 19.5133 37.0045 19.9582 37.0045C21.3636 37.0045 23.2861 33.4119 24.2448 27.5849C22.8317 27.6949 21.3937 27.7549 19.9582 27.7549ZM27.2628 27.2558C26.7534 30.8253 25.8625 34.0414 24.604 36.3404C30.284 34.7151 34.7228 30.2763 36.3455 24.5989C34.0466 25.8625 30.8554 26.7489 27.2628 27.2558Z" fill="var(--fill-0, #340C3B)"/>
<path id="Vector_24" d="M48.5918 0H49.2559V39.9157H48.5918V0Z" fill="var(--fill-0, #340C3B)"/>
</g>
<defs>
<clipPath id="clip0_0_80">
<rect width="201.327" height="39.915" fill="white"/>
</clipPath>
</defs>
</svg>
