<svg preserveAspectRatio="none" width="100%" height="100%" overflow="visible" style="display: block;" viewBox="0 0 241.592 47.898" fill="none" xmlns="http://www.w3.org/2000/svg">
<g id="Frame" clip-path="url(#clip0_0_188)">
<path id="Vector" d="M88.7248 38.992H86.1778C86.0735 38.992 86.0436 39.0342 86.0436 39.127V39.3126C86.0436 39.4054 86.0735 39.4475 86.1778 39.4475H88.395V40.3487C88.395 41.6012 87.5744 42.4011 86.085 42.4011C84.5725 42.4011 83.7634 41.6012 83.7634 40.2774V37.7395C83.7634 36.4334 84.5303 35.6457 86.0735 35.6457C87.421 35.6457 88.0323 36.1335 88.3414 37.1582C88.3743 37.251 88.425 37.2724 88.5178 37.2425L88.7034 37.1796C88.7962 37.1375 88.8291 37.1076 88.7962 37.0025C88.4457 35.8221 87.6787 35.2017 86.0735 35.2017C84.2397 35.2017 83.2871 36.1757 83.2871 37.7487V40.2774C83.2871 41.8619 84.2604 42.8444 86.0819 42.8444C87.8858 42.8444 88.8591 41.8619 88.8591 40.3487V39.1354C88.8591 39.0342 88.8291 38.992 88.7248 38.992Z" fill="var(--fill-0, #340C3B)"/>
<path id="Vector_2" d="M92.9903 35.3457H92.7717C92.6697 35.3457 92.6367 35.3756 92.6367 35.4807V42.5658C92.6367 42.6709 92.6697 42.7008 92.7717 42.7008H96.8849C96.9777 42.7008 97.0107 42.6709 97.0107 42.5658V42.3802C97.0107 42.2874 96.9777 42.2545 96.8849 42.2545H93.113V35.4807C93.113 35.3756 93.0831 35.3457 92.9903 35.3457Z" fill="var(--fill-0, #340C3B)"/>
<path id="Vector_3" d="M100.023 37.7602V40.2858C100.023 41.8711 100.997 42.8444 102.821 42.8444C104.622 42.8444 105.596 41.8711 105.596 40.2858V37.7602C105.596 36.1757 104.622 35.2017 102.821 35.2017C100.997 35.2017 100.023 36.1757 100.023 37.7602ZM105.12 37.7602V40.2858C105.12 41.6134 104.314 42.4011 102.821 42.4011C101.309 42.4011 100.5 41.6134 100.5 40.2858V37.7602C100.5 36.4334 101.309 35.6457 102.821 35.6457C104.314 35.6457 105.12 36.4334 105.12 37.7602Z" fill="var(--fill-0, #340C3B)"/>
<path id="Vector_4" d="M112.561 35.3457H109.619C109.514 35.3457 109.484 35.3756 109.484 35.4807V42.5658C109.484 42.6709 109.514 42.7008 109.619 42.7008H112.693C113.957 42.7008 114.757 42.006 114.757 40.7413C114.757 39.7289 114.281 39.1053 113.43 38.9197V38.899C114.134 38.6505 114.509 38.0807 114.509 37.2002C114.509 35.9992 113.792 35.3457 112.561 35.3457ZM114.02 37.2508C114.02 38.2364 113.472 38.7341 112.507 38.7341H109.961V35.7921H112.507C113.481 35.7921 114.02 36.2891 114.02 37.2508ZM114.26 40.7021C114.26 41.7153 113.687 42.2545 112.675 42.2545H109.961V39.1682H112.675C113.687 39.1682 114.26 39.7074 114.26 40.7021Z" fill="var(--fill-0, #340C3B)"/>
<path id="Vector_5" d="M123.927 42.5754L121.06 35.4181C121.027 35.3253 120.976 35.2954 120.883 35.2954H120.677C120.584 35.2954 120.542 35.3253 120.5 35.4181L117.63 42.5754C117.6 42.6498 117.621 42.7012 117.723 42.7012H117.9C118.055 42.7012 118.106 42.6797 118.139 42.5869L119.05 40.2983H122.489L123.412 42.5869C123.433 42.6797 123.484 42.7012 123.64 42.7012H123.825C123.94 42.7012 123.96 42.6498 123.927 42.5754ZM120.883 36.215L122.354 39.8941H119.194L120.665 36.215C120.74 36.0079 120.749 35.8223 120.749 35.7717H120.779C120.79 35.8223 120.812 36.0079 120.883 36.215Z" fill="var(--fill-0, #340C3B)"/>
<path id="Vector_6" d="M127.645 35.3457H127.426C127.321 35.3457 127.291 35.3756 127.291 35.4807V42.5658C127.291 42.6709 127.321 42.7008 127.426 42.7008H131.539C131.632 42.7008 131.662 42.6709 131.662 42.5658V42.3802C131.662 42.2874 131.632 42.2545 131.539 42.2545H127.767V35.4807C127.767 35.3756 127.737 35.3457 127.645 35.3457Z" fill="var(--fill-0, #340C3B)"/>
<path id="Vector_7" d="M139.346 37.2632C139.346 38.8693 140.753 39.0848 142.048 39.2405C143.178 39.3754 144.253 39.5311 144.253 40.7537C144.253 41.8497 143.489 42.3896 141.997 42.3896C140.835 42.3896 140.101 41.9041 139.654 40.8557C139.603 40.7537 139.573 40.7414 139.477 40.7744L139.282 40.8465C139.178 40.8879 139.169 40.9301 139.211 41.0321C139.708 42.2661 140.547 42.8444 141.997 42.8444C143.797 42.8444 144.732 42.0774 144.732 40.7322C144.732 39.1354 143.414 38.9199 142.153 38.7734C140.981 38.6507 139.831 38.4528 139.831 37.2303C139.831 36.2355 140.607 35.6572 141.943 35.6572C143.106 35.6572 143.758 36.0921 144.223 37.0148C144.274 37.1076 144.307 37.1076 144.388 37.0746L144.597 36.9818C144.679 36.9519 144.712 36.9005 144.657 36.8046C144.121 35.7086 143.333 35.2017 141.943 35.2017C140.307 35.2017 139.346 35.9993 139.346 37.2632Z" fill="var(--fill-0, #340C3B)"/>
<path id="Vector_8" d="M148.238 37.7602V40.2858C148.238 41.8711 149.212 42.8444 151.037 42.8444C152.837 42.8444 153.811 41.8711 153.811 40.2858V37.7602C153.811 36.1757 152.837 35.2017 151.037 35.2017C149.212 35.2017 148.238 36.1757 148.238 37.7602ZM153.335 37.7602V40.2858C153.335 41.6134 152.529 42.4011 151.037 42.4011C149.524 42.4011 148.715 41.6134 148.715 40.2858V37.7602C148.715 36.4334 149.524 35.6457 151.037 35.6457C152.529 35.6457 153.335 36.4334 153.335 37.7602Z" fill="var(--fill-0, #340C3B)"/>
<path id="Vector_9" d="M158.038 35.3457H157.822C157.717 35.3457 157.688 35.3756 157.688 35.4807V42.5658C157.688 42.6709 157.717 42.7008 157.822 42.7008H161.933C162.025 42.7008 162.058 42.6709 162.058 42.5658V42.3802C162.058 42.2874 162.025 42.2545 161.933 42.2545H158.164V35.4807C158.164 35.3756 158.131 35.3457 158.038 35.3457Z" fill="var(--fill-0, #340C3B)"/>
<path id="Vector_10" d="M165.621 40.2144V35.4807C165.621 35.3756 165.588 35.3457 165.495 35.3457H165.28C165.174 35.3457 165.145 35.3756 165.145 35.4807V40.2144C165.145 41.8196 166.043 42.8565 167.877 42.8565C169.702 42.8565 170.603 41.8196 170.603 40.2144V35.4807C170.603 35.3756 170.57 35.3457 170.477 35.3457H170.249C170.157 35.3457 170.127 35.3756 170.127 35.4807V40.2144C170.127 41.5504 169.39 42.4102 167.877 42.4102C166.355 42.4102 165.621 41.5504 165.621 40.2144Z" fill="var(--fill-0, #340C3B)"/>
<path id="Vector_11" d="M179.019 35.3457H174.049C173.944 35.3457 173.914 35.3756 173.914 35.4807V35.6663C173.914 35.7591 173.944 35.7921 174.049 35.7921H176.295V42.5658C176.295 42.6709 176.325 42.7008 176.43 42.7008H176.649C176.742 42.7008 176.772 42.6709 176.772 42.5658V35.7921H179.019C179.124 35.7921 179.154 35.7591 179.154 35.6663V35.4807C179.154 35.3756 179.124 35.3457 179.019 35.3457Z" fill="var(--fill-0, #340C3B)"/>
<path id="Vector_12" d="M182.461 35.4807V42.5658C182.461 42.6709 182.491 42.7008 182.596 42.7008H182.811C182.904 42.7008 182.937 42.6709 182.937 42.5658V35.4807C182.937 35.3756 182.904 35.3457 182.811 35.3457H182.596C182.491 35.3457 182.461 35.3756 182.461 35.4807Z" fill="var(--fill-0, #340C3B)"/>
<path id="Vector_13" d="M186.758 37.7602V40.2858C186.758 41.8711 187.731 42.8444 189.556 42.8444C191.36 42.8444 192.333 41.8711 192.333 40.2858V37.7602C192.333 36.1757 191.36 35.2017 189.556 35.2017C187.731 35.2017 186.758 36.1757 186.758 37.7602ZM191.857 37.7602V40.2858C191.857 41.6134 191.048 42.4011 189.556 42.4011C188.043 42.4011 187.234 41.6134 187.234 40.2858V37.7602C187.234 36.4334 188.043 35.6457 189.556 35.6457C191.048 35.6457 191.857 36.4334 191.857 37.7602Z" fill="var(--fill-0, #340C3B)"/>
<path id="Vector_14" d="M201.525 35.3457H201.318C201.214 35.3457 201.183 35.3756 201.183 35.4684V40.1423C201.183 40.8555 201.255 41.5504 201.255 42.006H201.235C200.986 41.6547 200.666 41.0741 200.282 40.5257L196.708 35.4178C196.687 35.3879 196.645 35.3457 196.564 35.3457H196.358C196.253 35.3457 196.223 35.3756 196.223 35.4807V42.5658C196.223 42.6709 196.253 42.7008 196.358 42.7008H196.564C196.657 42.7008 196.687 42.6709 196.687 42.5658V37.7394C196.687 37.0859 196.624 36.424 196.624 36.0291H196.645C196.864 36.3282 197.142 36.8888 197.484 37.3766L201.163 42.6165C201.205 42.6886 201.235 42.7008 201.307 42.7008H201.525C201.618 42.7008 201.648 42.6709 201.648 42.5658V35.4807C201.648 35.3756 201.618 35.3457 201.525 35.3457Z" fill="var(--fill-0, #340C3B)"/>
<path id="Vector_15" d="M205.478 37.2632C205.478 38.8693 206.886 39.0848 208.183 39.2405C209.309 39.3754 210.388 39.5311 210.388 40.7537C210.388 41.8497 209.621 42.3896 208.129 42.3896C206.969 42.3896 206.235 41.9041 205.789 40.8557C205.738 40.7537 205.706 40.7414 205.613 40.7744L205.415 40.8465C205.313 40.8879 205.301 40.9301 205.343 41.0321C205.84 42.2661 206.679 42.8444 208.129 42.8444C209.933 42.8444 210.865 42.0774 210.865 40.7322C210.865 39.1354 209.549 38.9199 208.285 38.7734C207.114 38.6507 205.966 38.4528 205.966 37.2303C205.966 36.2355 206.742 35.6572 208.078 35.6572C209.237 35.6572 209.891 36.0921 210.358 37.0148C210.409 37.1076 210.439 37.1076 210.523 37.0746L210.73 36.9818C210.813 36.9519 210.843 36.9005 210.793 36.8046C210.254 35.7086 209.465 35.2017 208.078 35.2017C206.443 35.2017 205.478 35.9993 205.478 37.2632Z" fill="var(--fill-0, #340C3B)"/>
<path id="Vector_16" d="M82.0295 29.4682H89.8463V28.86C89.4958 28.86 89.2258 28.8063 89.0372 28.6981C88.8485 28.59 88.7043 28.2817 88.6115 27.7663C88.5156 27.254 88.4619 26.4632 88.4497 25.3964C88.4351 24.3303 88.429 22.8531 88.429 20.9626V6.5016C90.0227 6.5016 91.2989 6.53458 92.2576 6.59977C93.2163 6.6688 93.9863 6.78308 94.5646 6.94491C95.146 7.1098 95.6038 7.34296 95.9428 7.65434C96.2811 7.96649 96.653 8.39139 97.0572 8.93133L97.3809 9.3777H97.8664C97.8119 8.83546 97.7674 8.24797 97.7253 7.61599C97.6861 6.98095 97.6386 6.39346 97.5841 5.85122L97.5427 5.24609H74.2103L74.1681 5.89341H74.2103C74.1566 6.43258 74.1083 7.01393 74.0692 7.63363C74.0278 8.25717 73.9795 8.83546 73.9258 9.3777H74.4136L74.7372 8.93133C75.1422 8.39139 75.5195 7.96649 75.87 7.65434C76.2236 7.34296 76.6876 7.1098 77.269 6.94491C77.8503 6.78308 78.6203 6.6688 79.579 6.59977C80.5377 6.53458 81.8262 6.5016 83.4468 6.5016V20.9626C83.4468 22.8531 83.4407 24.3303 83.4253 25.3964C83.4138 26.4632 83.3655 27.254 83.285 27.7663C83.2037 28.2817 83.0695 28.59 82.88 28.6981C82.6883 28.8063 82.4068 28.86 82.0295 28.86V29.4682Z" fill="var(--fill-0, #340C3B)"/>
<path id="Vector_17" d="M114.799 18.7752V14.5217H114.313L114.151 14.7249C113.989 14.9681 113.801 15.1682 113.585 15.3301C113.369 15.4919 112.989 15.6146 112.449 15.6959C111.91 15.7764 111.146 15.8363 110.161 15.8784C109.175 15.9175 107.833 15.9383 106.131 15.9383V6.5016C108.291 6.5016 109.999 6.51924 111.254 6.56143C112.509 6.59977 113.495 6.69028 114.211 6.82449C114.927 6.95948 115.46 7.17499 115.811 7.47181C116.164 7.76862 116.515 8.17587 116.865 8.6882L117.15 9.09239H117.593V5.24609H99.6895V5.85122C100.068 5.85122 100.352 5.90491 100.541 6.01305C100.729 6.12043 100.864 6.43258 100.945 6.94491C101.026 7.4603 101.074 8.24797 101.086 9.31481C101.101 10.3809 101.107 11.8611 101.107 13.7517V20.9626C101.107 22.8531 101.101 24.3303 101.086 25.3964C101.074 26.4632 101.026 27.254 100.945 27.7663C100.864 28.2817 100.729 28.59 100.541 28.6981C100.352 28.8063 100.068 28.86 99.6895 28.86V29.4682H117.513L117.636 28.86H117.675C117.755 28.3745 117.845 27.8353 117.938 27.2424C118.034 26.6458 118.121 26.1066 118.202 25.6211H117.755L117.392 26.0261C116.958 26.5384 116.533 26.9426 116.116 27.2424C115.697 27.5385 115.11 27.7548 114.355 27.889C113.597 28.024 112.578 28.1106 111.296 28.1528C110.013 28.1919 108.291 28.2127 106.131 28.2127V17.1547C107.833 17.1547 109.175 17.1761 110.161 17.2145C111.146 17.2567 111.91 17.3287 112.449 17.4361C112.989 17.5443 113.369 17.6823 113.585 17.8441C113.801 18.006 113.989 18.233 114.151 18.5329L114.313 18.7752H114.799Z" fill="var(--fill-0, #340C3B)"/>
<path id="Vector_18" d="M141.131 5.24609H137.161V5.85122H137.283C137.445 5.85122 137.532 5.89341 137.547 5.97394C137.559 6.05523 137.431 6.27075 137.161 6.62125C136.891 6.97175 136.451 7.48714 135.845 8.1613C135.237 8.83546 134.393 9.76654 133.314 10.9561L131.651 12.7385L128.29 16.4237V13.7517C128.29 11.8611 128.295 10.3809 128.311 9.31481C128.322 8.24797 128.377 7.4603 128.473 6.94491C128.565 6.43258 128.709 6.12043 128.898 6.01305C129.087 5.90491 129.356 5.85122 129.707 5.85122V5.24609H121.891V5.85122C122.268 5.85122 122.549 5.90491 122.738 6.01305C122.93 6.12043 123.065 6.43258 123.145 6.94491C123.227 7.4603 123.274 8.24797 123.286 9.31481C123.302 10.3809 123.307 11.8611 123.307 13.7517V20.9626C123.307 22.8531 123.302 24.3303 123.286 25.3964C123.274 26.4632 123.227 27.254 123.145 27.7663C123.065 28.2817 122.93 28.59 122.738 28.6981C122.549 28.8063 122.268 28.86 121.891 28.86V29.4682H129.707V28.86C129.356 28.86 129.087 28.8063 128.898 28.6981C128.709 28.59 128.565 28.2817 128.473 27.7663C128.377 27.254 128.322 26.4632 128.311 25.3964C128.295 24.3303 128.29 22.8531 128.29 20.9626V16.4237C128.721 17.101 129.221 17.8556 129.788 18.6947C130.273 19.3957 130.854 20.2524 131.531 21.2655C132.205 22.2779 132.96 23.4077 133.799 24.6478C134.42 25.5406 135.055 26.3014 135.702 26.9364C136.352 27.5715 137.068 28.093 137.849 28.4972C138.632 28.9021 139.482 29.1982 140.402 29.3869C141.319 29.5755 142.347 29.6722 143.479 29.6722H145.181V28.6981C144.642 28.6981 144.093 28.5631 143.542 28.2939C142.988 28.024 142.401 27.5868 141.78 26.9786C141.157 26.3704 140.468 25.5735 139.713 24.588C138.959 23.6017 138.107 22.3945 137.161 20.9626C136.082 19.342 135.13 17.9247 134.305 16.7083C133.482 15.4919 132.84 14.5485 132.382 13.8744L132.502 13.7517C134.177 11.8879 135.507 10.4292 136.493 9.3777C137.478 8.32313 138.248 7.53163 138.803 7.0078C139.354 6.48013 139.773 6.15647 140.058 6.03376C140.339 5.91411 140.618 5.85122 140.887 5.85122H141.131V5.24609Z" fill="var(--fill-0, #340C3B)"/>
<path id="Vector_19" d="M161.87 10.8333L161.912 6.94482C160.965 6.37803 159.926 5.92016 158.79 5.56966C157.657 5.21916 156.618 5.04199 155.672 5.04199C154.404 5.04199 153.247 5.22453 152.208 5.5873C151.169 5.95314 150.278 6.46547 149.536 7.12735C148.793 7.78924 148.218 8.59224 147.813 9.53943C147.408 10.4828 147.205 11.522 147.205 12.6579C147.205 14.0898 147.765 15.4051 148.886 16.6062C150.009 17.808 151.501 18.6946 153.365 19.2606C154.389 19.5574 155.315 19.9079 156.139 20.3121C156.962 20.7201 157.67 21.1512 158.265 21.6098C158.859 22.0677 159.318 22.547 159.641 23.0479C159.967 23.5479 160.129 24.0395 160.129 24.5273C160.129 25.7138 159.662 26.661 158.73 27.362C157.798 28.0661 156.564 28.4166 155.024 28.4166C153.7 28.4166 152.417 28.0776 151.174 27.4034C149.934 26.727 148.961 25.822 148.26 24.6892C148.178 24.5549 148.092 24.42 147.996 24.285C147.9 24.1469 147.813 24.0127 147.732 23.8777H147.205L147.166 27.7662C148.109 28.3353 149.299 28.7939 150.731 29.1444C152.16 29.4949 153.592 29.6721 155.024 29.6721C156.321 29.6721 157.502 29.4949 158.568 29.1444C159.635 28.7939 160.546 28.3084 161.303 27.6857C162.059 27.0652 162.646 26.3105 163.065 25.4178C163.485 24.5273 163.695 23.5418 163.695 22.4604C163.695 20.9203 163.098 19.5183 161.912 18.2482C160.723 16.9782 159.144 16.0463 157.173 15.4527C155.201 14.8598 153.619 14.1289 152.433 13.2661C151.243 12.4002 150.65 11.5374 150.65 10.6715C150.65 10.051 150.764 9.47041 150.995 8.93124C151.222 8.3913 151.54 7.92422 151.944 7.53154C152.352 7.14192 152.832 6.83054 153.382 6.59968C153.937 6.37266 154.539 6.25839 155.186 6.25839C156.402 6.25839 157.49 6.63573 158.449 7.39118C159.407 8.14894 160.195 9.01177 160.819 9.9858C160.899 10.12 160.986 10.2611 161.079 10.4076C161.175 10.558 161.262 10.6983 161.342 10.8333H161.87Z" fill="var(--fill-0, #340C3B)"/>
<path id="Vector_20" d="M177.225 6.5016C178.519 6.5016 179.568 6.99859 180.365 7.99947C181.158 8.99652 181.557 10.3088 181.557 11.9301C181.557 13.6013 181.092 14.9466 180.161 15.9597C179.229 16.9721 177.995 17.4783 176.455 17.4783C176.05 17.4783 175.643 17.4637 175.238 17.4361H173.336V6.5016H177.225ZM174.753 28.86C174.403 28.86 174.133 28.8063 173.941 28.6981C173.753 28.59 173.611 28.2817 173.516 27.7663C173.423 27.254 173.369 26.4632 173.354 25.3964C173.342 24.3303 173.336 22.8531 173.336 20.9626V18.6947H176.455C178.022 18.6947 179.439 18.5329 180.706 18.2062C181.977 17.8825 183.064 17.4246 183.968 16.831C184.874 16.2351 185.575 15.5187 186.075 14.6835C186.575 13.8475 186.824 12.9272 186.824 11.9301C186.824 10.9293 186.596 10.0181 186.134 9.19439C185.677 8.37068 185.029 7.66968 184.19 7.08833C183.354 6.50697 182.342 6.05523 181.152 5.73158C179.966 5.40792 178.654 5.24609 177.225 5.24609H166.934V5.85122C167.311 5.85122 167.596 5.90491 167.785 6.01305C167.974 6.12043 168.109 6.43258 168.189 6.94491C168.27 7.4603 168.318 8.24797 168.333 9.31481C168.345 10.3809 168.351 11.8611 168.351 13.7517V20.9626C168.351 22.8531 168.345 24.3303 168.333 25.3964C168.318 26.4632 168.27 27.254 168.189 27.7663C168.109 28.2817 167.974 28.59 167.785 28.6981C167.596 28.8063 167.311 28.86 166.934 28.86V29.4682H174.753V28.86Z" fill="var(--fill-0, #340C3B)"/>
<path id="Vector_21" d="M194.885 17.3555C194.885 15.8722 195.046 14.461 195.37 13.1219C195.693 11.7859 196.173 10.6116 196.808 9.59926C197.443 8.5861 198.234 7.7831 199.177 7.19024C200.125 6.59431 201.218 6.2975 202.459 6.2975C203.702 6.2975 204.795 6.59431 205.742 7.19024C206.685 7.7831 207.471 8.5861 208.09 9.59926C208.711 10.6116 209.184 11.7859 209.508 13.1219C209.831 14.461 209.993 15.8722 209.993 17.3555C209.993 18.8411 209.831 20.2523 209.508 21.5883C209.184 22.9282 208.711 24.1024 208.09 25.1148C207.471 26.1272 206.685 26.9302 205.742 27.5238C204.795 28.1198 203.702 28.4166 202.459 28.4166C201.218 28.4166 200.125 28.1198 199.177 27.5238C198.234 26.9302 197.443 26.1272 196.808 25.1148C196.173 24.1024 195.693 22.9282 195.37 21.5883C195.046 20.2523 194.885 18.8411 194.885 17.3555ZM189.375 17.3555C189.375 19.0029 189.65 20.576 190.205 22.0769C190.759 23.5748 191.583 24.884 192.677 26.0045C193.77 27.125 195.133 28.0178 196.769 28.6804C198.402 29.3392 200.298 29.6721 202.459 29.6721C204.621 29.6721 206.512 29.3392 208.129 28.6804C209.75 28.0178 211.108 27.125 212.201 26.0045C213.294 24.884 214.119 23.5748 214.672 22.0769C215.227 20.576 215.502 19.0029 215.502 17.3555C215.502 15.6835 215.227 14.1021 214.672 12.6157C214.119 11.1332 213.294 9.82934 212.201 8.70882C211.108 7.58906 209.75 6.69555 208.129 6.03367C206.512 5.37178 204.621 5.04199 202.459 5.04199C200.298 5.04199 198.402 5.37178 196.769 6.03367C195.133 6.69555 193.77 7.58906 192.677 8.70882C191.583 9.82934 190.759 11.1332 190.205 12.6157C189.65 14.1021 189.375 15.6835 189.375 17.3555Z" fill="var(--fill-0, #340C3B)"/>
<path id="Vector_22" d="M225.752 29.4682H233.571V28.86C233.22 28.86 232.947 28.8063 232.759 28.6981C232.57 28.59 232.43 28.2817 232.334 27.7663C232.241 27.254 232.187 26.4632 232.172 25.3964C232.16 24.3303 232.154 22.8531 232.154 20.9626V6.5016C233.745 6.5016 235.021 6.53458 235.98 6.59977C236.939 6.6688 237.709 6.78308 238.289 6.94491C238.871 7.1098 239.329 7.34296 239.667 7.65434C240.003 7.96649 240.375 8.39139 240.782 8.93133L241.106 9.3777H241.591C241.537 8.83546 241.489 8.24797 241.45 7.61599C241.408 6.98095 241.36 6.39346 241.306 5.85122L241.267 5.24609H217.935L217.894 5.89341H217.935C217.881 6.43258 217.833 7.01393 217.792 7.63363C217.752 8.25717 217.704 8.83546 217.65 9.3777H218.136L218.46 8.93133C218.867 8.39139 219.244 7.96649 219.595 7.65434C219.945 7.34296 220.413 7.1098 220.991 6.94491C221.572 6.78308 222.342 6.6688 223.301 6.59977C224.259 6.53458 225.551 6.5016 227.168 6.5016V20.9626C227.168 22.8531 227.163 24.3303 227.151 25.3964C227.135 26.4632 227.088 27.254 227.007 27.7663C226.926 28.2817 226.791 28.59 226.602 28.6981C226.414 28.8063 226.129 28.86 225.752 28.86V29.4682Z" fill="var(--fill-0, #340C3B)"/>
<path id="Vector_23" fill-rule="evenodd" clip-rule="evenodd" d="M0 23.9498C0 10.7221 10.7221 0 23.9498 0C37.1706 0.0122713 47.8873 10.7282 47.8988 23.9498C47.8988 37.1768 37.1768 47.8988 23.9498 47.8988C10.7221 47.8988 0 37.1768 0 23.9498ZM17.403 23.9498C17.403 25.825 17.4813 27.6795 17.6462 29.4681C19.74 29.6897 21.843 29.8002 23.9498 29.7979C25.9539 29.7979 27.7992 29.7043 29.5455 29.5402C29.7104 27.793 29.8063 25.9239 29.8063 23.9498C29.8063 11.6631 26.2837 3.505 23.9498 3.505C23.416 3.505 22.8922 3.53491 22.3676 3.57096C20.6572 5.18003 18.8687 9.26945 17.9698 15.5785C19.9409 15.3844 21.9572 15.2916 23.9498 15.2916V17.3977C21.7448 17.3977 19.6594 17.502 17.7121 17.6968C17.6761 18.1017 17.604 18.4937 17.604 18.8986C17.5534 19.5099 17.4813 20.1326 17.4813 20.7531C17.403 21.7923 17.403 22.8768 17.403 23.9498ZM15.8154 15.8216C16.4328 11.4177 17.538 6.96858 19.3059 4.04417C11.7352 5.83041 5.82428 11.7414 4.04417 19.3151C6.8336 17.6247 11.1033 16.4474 15.8154 15.8216ZM32.8082 15.9082C36.9697 16.5195 41.0921 17.6339 43.8516 19.2997C42.1497 12.0673 36.6675 6.32434 29.5248 4.28116C31.1186 7.19943 32.2184 11.3395 32.8082 15.9082ZM3.5863 22.3108C3.5142 22.85 3.5142 23.3953 3.5142 23.9498C3.5142 25.723 8.07683 28.096 15.5133 29.2012C15.3691 27.4816 15.297 25.7322 15.297 23.9498C15.297 22.8408 15.3269 21.7295 15.3783 20.645C15.4113 20.0069 15.4527 19.3657 15.5071 18.7245L15.57 17.9576C9.57164 18.8058 5.26057 20.5069 3.5863 22.3108ZM33.3121 23.9498C33.3121 25.6662 33.24 27.398 33.1111 29.0876C40.1242 27.9372 44.3701 25.6302 44.3908 23.9705C44.3908 23.4313 44.3279 22.9067 44.3279 22.3829C42.7817 20.7079 38.9438 18.9975 33.0452 18.0711C33.2185 19.9977 33.3121 21.9718 33.3121 23.9498ZM23.9498 33.3059C16.4328 33.3059 8.853 32.0174 4.29036 29.5187C6.32434 36.679 12.0827 42.1735 19.3296 43.8754C17.8916 41.2899 16.903 38.4829 16.3968 35.5677L18.4576 35.1451C19.4853 40.0644 20.9594 43.0394 22.3614 44.3394C22.886 44.4053 23.416 44.4053 23.9498 44.4053C25.6363 44.4053 27.9433 40.0943 29.0938 33.1019C27.398 33.2338 25.6724 33.3059 23.9498 33.3059ZM32.7154 32.7069C32.1041 36.9904 31.035 40.8497 29.5248 43.6085C36.3408 41.6581 41.6673 36.3316 43.6146 29.5187C40.8559 31.035 37.0264 32.0987 32.7154 32.7069Z" fill="var(--fill-0, #340C3B)"/>
<path id="Vector_24" d="M58.3086 0H59.1055V47.8988H58.3086V0Z" fill="var(--fill-0, #340C3B)"/>
</g>
<defs>
<clipPath id="clip0_0_188">
<rect width="241.592" height="47.898" fill="white"/>
</clipPath>
</defs>
</svg>
