<svg preserveAspectRatio="none" width="100%" height="100%" overflow="visible" style="display: block;" viewBox="0 0 1470 303" fill="none" xmlns="http://www.w3.org/2000/svg">
<g id="Grid" clip-path="url(#clip0_0_105)">
<path id="Vector" d="M-28 44.2256H1442" stroke="var(--stroke-0, #EDEDED)" stroke-width="1.05"/>
<path id="Vector_2" d="M-28 87.2676H1442" stroke="var(--stroke-0, #EDEDED)" stroke-width="1.05"/>
<path id="Vector_3" d="M-28 130.31H1442" stroke="var(--stroke-0, #EDEDED)" stroke-width="1.05"/>
<path id="Vector_4" d="M-28 173.351H1442" stroke="var(--stroke-0, #EDEDED)" stroke-width="1.05"/>
<path id="Vector_5" d="M-28 216.392H1442" stroke="var(--stroke-0, #EDEDED)" stroke-width="1.05"/>
<path id="Vector_6" d="M-28 259.433H1442" stroke="var(--stroke-0, #EDEDED)" stroke-width="1.05"/>
<path id="Vector_7" d="M-28 302.476H1442" stroke="var(--stroke-0, #EDEDED)" stroke-width="1.05"/>
<path id="Vector_8" d="M-28 0.224609V302.899" stroke="var(--stroke-0, #EDEDED)" stroke-width="1.05"/>
<path id="Vector_9" d="M24 0.224609V302.899" stroke="var(--stroke-0, #EDEDED)" stroke-width="1.05"/>
<path id="Vector_10" d="M77 0.224609V302.899" stroke="var(--stroke-0, #EDEDED)" stroke-width="1.05"/>
<path id="Vector_11" d="M130 0.224609V302.899" stroke="var(--stroke-0, #EDEDED)" stroke-width="1.05"/>
<path id="Vector_12" d="M182 0.224609V302.899" stroke="var(--stroke-0, #EDEDED)" stroke-width="1.05"/>
<path id="Vector_13" d="M235 0.224609V302.899" stroke="var(--stroke-0, #EDEDED)" stroke-width="1.05"/>
<path id="Vector_14" d="M287 0.224609V302.899" stroke="var(--stroke-0, #EDEDED)" stroke-width="1.05"/>
<path id="Vector_15" d="M340 0.224609V302.899" stroke="var(--stroke-0, #EDEDED)" stroke-width="1.05"/>
<path id="Vector_16" d="M392 0.224609V302.899" stroke="var(--stroke-0, #EDEDED)" stroke-width="1.05"/>
<path id="Vector_17" d="M444 0.224609V302.899" stroke="var(--stroke-0, #EDEDED)" stroke-width="1.05"/>
<path id="Vector_18" d="M497 0.224609V302.899" stroke="var(--stroke-0, #EDEDED)" stroke-width="1.05"/>
<path id="Vector_19" d="M549 0.224609V302.899" stroke="var(--stroke-0, #EDEDED)" stroke-width="1.05"/>
<path id="Vector_20" d="M602 0.224609V302.899" stroke="var(--stroke-0, #EDEDED)" stroke-width="1.05"/>
<path id="Vector_21" d="M655 0.224609V302.899" stroke="var(--stroke-0, #EDEDED)" stroke-width="1.05"/>
<path id="Vector_22" d="M707 0.224609V302.899" stroke="var(--stroke-0, #EDEDED)" stroke-width="1.05"/>
<path id="Vector_23" d="M760 0.224609V302.899" stroke="var(--stroke-0, #EDEDED)" stroke-width="1.05"/>
<path id="Vector_24" d="M812 0.224609V302.899" stroke="var(--stroke-0, #EDEDED)" stroke-width="1.05"/>
<path id="Vector_25" d="M865 0.224609V302.899" stroke="var(--stroke-0, #EDEDED)" stroke-width="1.05"/>
<path id="Vector_26" d="M917 0.224609V302.899" stroke="var(--stroke-0, #EDEDED)" stroke-width="1.05"/>
<path id="Vector_27" d="M970 0.224609V302.899" stroke="var(--stroke-0, #EDEDED)" stroke-width="1.05"/>
<path id="Vector_28" d="M1022 0.224609V302.899" stroke="var(--stroke-0, #EDEDED)" stroke-width="1.05"/>
<path id="Vector_29" d="M1075 0.224609V302.899" stroke="var(--stroke-0, #EDEDED)" stroke-width="1.05"/>
<path id="Vector_30" d="M1127 0.224609V302.899" stroke="var(--stroke-0, #EDEDED)" stroke-width="1.05"/>
<path id="Vector_31" d="M1179 0.224609V302.899" stroke="var(--stroke-0, #EDEDED)" stroke-width="1.05"/>
<path id="Vector_32" d="M1232 0.224609V302.899" stroke="var(--stroke-0, #EDEDED)" stroke-width="1.05"/>
<path id="Vector_33" d="M1285 0.224609V302.899" stroke="var(--stroke-0, #EDEDED)" stroke-width="1.05"/>
<path id="Vector_34" d="M1337 0.224609V302.899" stroke="var(--stroke-0, #EDEDED)" stroke-width="1.05"/>
<path id="Vector_35" d="M1390 0.224609V302.899" stroke="var(--stroke-0, #EDEDED)" stroke-width="1.05"/>
<path id="Vector_36" d="M1442 0.224609V302.899" stroke="var(--stroke-0, #EDEDED)" stroke-width="1.05"/>
</g>
<defs>
<clipPath id="clip0_0_105">
<rect width="1470" height="303" fill="white"/>
</clipPath>
</defs>
</svg>
