<svg preserveAspectRatio="none" width="100%" height="100%" overflow="visible" style="display: block;" viewBox="0 0 1470 303" fill="none" xmlns="http://www.w3.org/2000/svg">
<g id="Grid" clip-path="url(#clip0_0_196)">
<path id="Vector" d="M0 44.2256H1470" stroke="var(--stroke-0, #EDEDED)" stroke-width="1.05"/>
<path id="Vector_2" d="M0 87.2676H1470" stroke="var(--stroke-0, #EDEDED)" stroke-width="1.05"/>
<path id="Vector_3" d="M0 130.31H1470" stroke="var(--stroke-0, #EDEDED)" stroke-width="1.05"/>
<path id="Vector_4" d="M0 173.351H1470" stroke="var(--stroke-0, #EDEDED)" stroke-width="1.05"/>
<path id="Vector_5" d="M0 216.392H1470" stroke="var(--stroke-0, #EDEDED)" stroke-width="1.05"/>
<path id="Vector_6" d="M0 259.433H1470" stroke="var(--stroke-0, #EDEDED)" stroke-width="1.05"/>
<path id="Vector_7" d="M0 302.476H1470" stroke="var(--stroke-0, #EDEDED)" stroke-width="1.05"/>
<path id="Vector_8" d="M0 0.224609V302.899" stroke="var(--stroke-0, #EDEDED)" stroke-width="1.05"/>
<path id="Vector_9" d="M52 0.224609V302.899" stroke="var(--stroke-0, #EDEDED)" stroke-width="1.05"/>
<path id="Vector_10" d="M105 0.224609V302.899" stroke="var(--stroke-0, #EDEDED)" stroke-width="1.05"/>
<path id="Vector_11" d="M158 0.224609V302.899" stroke="var(--stroke-0, #EDEDED)" stroke-width="1.05"/>
<path id="Vector_12" d="M210 0.224609V302.899" stroke="var(--stroke-0, #EDEDED)" stroke-width="1.05"/>
<path id="Vector_13" d="M263 0.224609V302.899" stroke="var(--stroke-0, #EDEDED)" stroke-width="1.05"/>
<path id="Vector_14" d="M315 0.224609V302.899" stroke="var(--stroke-0, #EDEDED)" stroke-width="1.05"/>
<path id="Vector_15" d="M368 0.224609V302.899" stroke="var(--stroke-0, #EDEDED)" stroke-width="1.05"/>
<path id="Vector_16" d="M420 0.224609V302.899" stroke="var(--stroke-0, #EDEDED)" stroke-width="1.05"/>
<path id="Vector_17" d="M472 0.224609V302.899" stroke="var(--stroke-0, #EDEDED)" stroke-width="1.05"/>
<path id="Vector_18" d="M525 0.224609V302.899" stroke="var(--stroke-0, #EDEDED)" stroke-width="1.05"/>
<path id="Vector_19" d="M577 0.224609V302.899" stroke="var(--stroke-0, #EDEDED)" stroke-width="1.05"/>
<path id="Vector_20" d="M630 0.224609V302.899" stroke="var(--stroke-0, #EDEDED)" stroke-width="1.05"/>
<path id="Vector_21" d="M683 0.224609V302.899" stroke="var(--stroke-0, #EDEDED)" stroke-width="1.05"/>
<path id="Vector_22" d="M735 0.224609V302.899" stroke="var(--stroke-0, #EDEDED)" stroke-width="1.05"/>
<path id="Vector_23" d="M788 0.224609V302.899" stroke="var(--stroke-0, #EDEDED)" stroke-width="1.05"/>
<path id="Vector_24" d="M840 0.224609V302.899" stroke="var(--stroke-0, #EDEDED)" stroke-width="1.05"/>
<path id="Vector_25" d="M893 0.224609V302.899" stroke="var(--stroke-0, #EDEDED)" stroke-width="1.05"/>
<path id="Vector_26" d="M945 0.224609V302.899" stroke="var(--stroke-0, #EDEDED)" stroke-width="1.05"/>
<path id="Vector_27" d="M998 0.224609V302.899" stroke="var(--stroke-0, #EDEDED)" stroke-width="1.05"/>
<path id="Vector_28" d="M1050 0.224609V302.899" stroke="var(--stroke-0, #EDEDED)" stroke-width="1.05"/>
<path id="Vector_29" d="M1103 0.224609V302.899" stroke="var(--stroke-0, #EDEDED)" stroke-width="1.05"/>
<path id="Vector_30" d="M1155 0.224609V302.899" stroke="var(--stroke-0, #EDEDED)" stroke-width="1.05"/>
<path id="Vector_31" d="M1207 0.224609V302.899" stroke="var(--stroke-0, #EDEDED)" stroke-width="1.05"/>
<path id="Vector_32" d="M1260 0.224609V302.899" stroke="var(--stroke-0, #EDEDED)" stroke-width="1.05"/>
<path id="Vector_33" d="M1313 0.224609V302.899" stroke="var(--stroke-0, #EDEDED)" stroke-width="1.05"/>
<path id="Vector_34" d="M1365 0.224609V302.899" stroke="var(--stroke-0, #EDEDED)" stroke-width="1.05"/>
<path id="Vector_35" d="M1418 0.224609V302.899" stroke="var(--stroke-0, #EDEDED)" stroke-width="1.05"/>
<path id="Vector_36" d="M1470 0.224609V302.899" stroke="var(--stroke-0, #EDEDED)" stroke-width="1.05"/>
</g>
<defs>
<clipPath id="clip0_0_196">
<rect width="1470" height="303" fill="white"/>
</clipPath>
</defs>
</svg>
