<svg preserveAspectRatio="none" width="100%" height="100%" overflow="visible" style="display: block;" viewBox="0 0 101.911 71.72" fill="none" xmlns="http://www.w3.org/2000/svg">
<g id="9+">
<path d="M25.5866 71.72C12.3087 71.72 4.84595 66.5833 1.06611 56.4068C0.0969188 53.5962 0.775352 52.3362 3.39216 51.367L11.3395 48.5564C14.0532 47.5872 15.3132 48.1687 16.4762 51.1732C17.93 54.7592 20.6437 56.213 25.2958 56.213C31.4987 56.213 34.3093 53.79 34.3093 46.8118V43.3228C31.4017 44.0981 28.1065 44.4858 24.7143 44.4858C7.55967 44.4858 0 37.6045 0 22.679C0 8.33502 9.69189 0 25.6835 0C42.5474 0 51.4639 9.59497 51.4639 25.8774V46.1334C51.4639 62.5127 42.2567 71.72 25.5866 71.72ZM25.6835 30.1418C29.2695 30.1418 32.0802 29.5603 34.3093 28.7849V24.5205C34.3093 18.5115 32.0802 15.1194 25.6835 15.1194C19.6745 15.1194 17.1546 17.8331 17.1546 22.679C17.1546 27.4281 19.6745 30.1418 25.6835 30.1418Z" fill="var(--fill-0, black)"/>
<path d="M76.809 62.222C73.8045 62.222 72.9322 61.2528 72.9322 58.2483V45.7457H62.2712C59.3636 45.7457 58.3944 44.7765 58.3944 41.7721V35.2785C58.3944 32.274 59.3636 31.3048 62.2712 31.3048H72.9322V18.8992C72.9322 15.8947 73.8045 14.9255 76.809 14.9255H83.4964C86.404 14.9255 87.3732 15.8947 87.3732 18.8992V31.3048H98.0342C100.942 31.3048 101.911 32.274 101.911 35.2785V41.7721C101.911 44.7765 100.942 45.7457 98.0342 45.7457H87.3732V58.2483C87.3732 61.2528 86.404 62.222 83.4964 62.222H76.809Z" fill="var(--fill-0, black)"/>
</g>
</svg>
